<svg xmlns="http://www.w3.org/2000/svg" xmlns:xlink="http://www.w3.org/1999/xlink" width="1280" zoomAndPan="magnify" viewBox="0 0 960 540.000001" height="720" preserveAspectRatio="xMidYMid meet" version="1.0"><defs><g/><clipPath id="eafc4e8d7b"><path d="M 0.886719 0 L 959.113281 0 L 959.113281 539 L 0.886719 539 Z M 0.886719 0 " clip-rule="nonzero"/></clipPath><clipPath id="e120f0d36f"><path d="M 71.609375 66.503906 L 525 66.503906 L 525 490 L 71.609375 490 Z M 71.609375 66.503906 " clip-rule="nonzero"/></clipPath><clipPath id="8c3d6c247f"><path d="M 190 125 L 298 125 L 298 226 L 190 226 Z M 190 125 " clip-rule="nonzero"/></clipPath><clipPath id="7a790cbef3"><path d="M 192.921875 119.851562 L 335.761719 126.316406 L 329.296875 269.15625 L 186.457031 262.691406 Z M 192.921875 119.851562 " clip-rule="nonzero"/></clipPath><clipPath id="26ff4f9b8b"><path d="M 192.921875 119.851562 L 335.761719 126.316406 L 329.296875 269.15625 L 186.457031 262.691406 Z M 192.921875 119.851562 " clip-rule="nonzero"/></clipPath><clipPath id="faf78f6163"><path d="M 229.371094 142.117188 C 229.800781 132.621094 232.640625 127.574219 247.128906 125.765625 C 256.964844 124.535156 269.492188 124.894531 281.082031 127.304688 C 290.234375 129.207031 297.691406 136.273438 297.289062 145.191406 L 295.871094 176.515625 C 295.453125 185.703125 287.578125 192.886719 278.132812 192.460938 L 244.179688 190.925781 C 232.65625 190.402344 222.511719 199.570312 222.019531 210.425781 L 221.339844 225.457031 L 209.664062 224.929688 C 199.789062 224.480469 194.355469 217.261719 192.382812 207.410156 C 189.714844 194.175781 190.207031 186.386719 193.894531 173.996094 C 197.09375 163.183594 205.996094 157.804688 215.871094 158.253906 L 262.578125 160.367188 L 262.769531 156.183594 L 228.804688 154.648438 Z M 229.371094 142.117188 " clip-rule="nonzero"/></clipPath><clipPath id="d4633bbed2"><path d="M 224 162 L 332 162 L 332 264 L 224 264 Z M 224 162 " clip-rule="nonzero"/></clipPath><clipPath id="c84b3609fe"><path d="M 192.921875 119.851562 L 335.761719 126.316406 L 329.296875 269.15625 L 186.457031 262.691406 Z M 192.921875 119.851562 " clip-rule="nonzero"/></clipPath><clipPath id="553486ec1f"><path d="M 192.921875 119.851562 L 335.761719 126.316406 L 329.296875 269.15625 L 186.457031 262.691406 Z M 192.921875 119.851562 " clip-rule="nonzero"/></clipPath><clipPath id="48c56eb813"><path d="M 292.75 245.433594 C 292.320312 254.929688 283.675781 259.355469 275.011719 261.367188 C 261.980469 264.402344 251.675781 263.378906 241.058594 259.832031 C 232.195312 256.867188 224.429688 251.277344 224.835938 242.359375 L 226.25 211.035156 C 226.660156 202.019531 234.695312 194.671875 243.988281 195.089844 L 277.941406 196.628906 C 289.25 197.140625 299.609375 188.035156 300.121094 176.707031 L 300.78125 162.09375 L 313.511719 162.671875 C 323.402344 163.117188 327.730469 170.511719 329.738281 180.140625 C 332.539062 193.515625 332.242188 203.410156 328.226562 213.558594 C 324.339844 223.414062 320.363281 229.9375 310.488281 229.492188 L 259.546875 227.183594 L 259.359375 231.367188 L 293.308594 232.902344 L 292.742188 245.433594 Z M 292.75 245.433594 " clip-rule="nonzero"/></clipPath><clipPath id="29b956423e"><path d="M 237 134 L 285 134 L 285 254 L 237 254 Z M 237 134 " clip-rule="nonzero"/></clipPath><clipPath id="6446232bb2"><path d="M 192.921875 119.851562 L 335.761719 126.316406 L 329.296875 269.15625 L 186.457031 262.691406 Z M 192.921875 119.851562 " clip-rule="nonzero"/></clipPath><clipPath id="08852ec61e"><path d="M 192.921875 119.851562 L 335.761719 126.316406 L 329.296875 269.15625 L 186.457031 262.691406 Z M 192.921875 119.851562 " clip-rule="nonzero"/></clipPath><clipPath id="faeba4766a"><path d="M 0.886719 157 L 375 157 L 375 539 L 0.886719 539 Z M 0.886719 157 " clip-rule="nonzero"/></clipPath><clipPath id="c88f9b152e"><path d="M -182.410156 267.59375 L -64.128906 157.339844 L 375.167969 628.625 L 256.886719 738.878906 Z M -182.410156 267.59375 " clip-rule="nonzero"/></clipPath><clipPath id="4709785ba1"><path d="M -182.410156 267.59375 L -64.128906 157.339844 L 374.628906 628.046875 L 256.34375 738.300781 Z M -182.410156 267.59375 " clip-rule="nonzero"/></clipPath></defs><g clip-path="url(#eafc4e8d7b)"><path fill="#ffffff" d="M 0.886719 0 L 959.113281 0 L 959.113281 546.488281 L 0.886719 546.488281 Z M 0.886719 0 " fill-opacity="1" fill-rule="nonzero"/><path fill="#ffffff" d="M 0.886719 0 L 959.113281 0 L 959.113281 539 L 0.886719 539 Z M 0.886719 0 " fill-opacity="1" fill-rule="nonzero"/><path fill="#000000" d="M 0.886719 0 L 959.113281 0 L 959.113281 539 L 0.886719 539 Z M 0.886719 0 " fill-opacity="1" fill-rule="nonzero"/></g><g clip-path="url(#e120f0d36f)"><path fill="#ffffff" d="M 106.894531 437.3125 C 106.894531 437.28125 106.921875 437.253906 106.921875 437.222656 C 104.003906 436.914062 101.066406 436.589844 98.148438 436.234375 C 97.660156 436.175781 97.277344 435.941406 96.953125 435.675781 C 96.71875 435.824219 96.496094 436 96.289062 436.175781 C 96.347656 436.292969 96.410156 436.414062 96.4375 436.558594 C 96.746094 438.210938 97.042969 439.851562 97.367188 441.472656 C 100.507812 441.765625 103.664062 442.003906 106.804688 442.296875 C 107.011719 440.632812 106.921875 438.980469 106.894531 437.3125 Z M 114.558594 428.359375 C 112.113281 428.078125 109.636719 427.8125 107.1875 427.515625 C 105.257812 429.125 103.339844 430.675781 101.363281 432.207031 C 104.207031 432.5625 107.039062 432.886719 109.886719 433.195312 C 111.347656 431.484375 112.894531 429.878906 114.558594 428.359375 Z M 118.984375 424.480469 C 119.734375 423.84375 120.503906 423.210938 121.253906 422.589844 C 118.835938 422.324219 116.417969 422.105469 114 421.808594 C 113.277344 422.414062 112.539062 423.0625 111.816406 423.667969 C 114.207031 423.933594 116.59375 424.226562 118.984375 424.480469 Z M 121.960938 438.800781 C 118.511719 438.449219 115.078125 438.09375 111.609375 437.753906 C 111.523438 437.871094 111.40625 437.976562 111.257812 438.066406 C 111.285156 439.613281 111.285156 441.132812 111.140625 442.652344 C 114.707031 442.960938 118.292969 443.285156 121.84375 443.550781 C 121.84375 442.503906 121.875 440.410156 121.960938 438.800781 Z M 129.367188 415.714844 C 126.710938 415.628906 124.058594 415.539062 121.433594 415.480469 C 120.472656 416.292969 119.515625 417.117188 118.542969 417.929688 C 120.988281 418.195312 123.4375 418.488281 125.914062 418.742188 C 127.078125 417.75 128.214844 416.761719 129.367188 415.714844 Z M 130.664062 430.023438 C 127.167969 429.699219 123.671875 429.363281 120.179688 428.976562 C 118.425781 430.496094 116.742188 432.0625 115.164062 433.726562 C 118.601562 434.082031 122.023438 434.421875 125.457031 434.746094 C 127.257812 433.253906 129.011719 431.691406 130.664062 430.023438 Z M 134.480469 426.042969 C 135.101562 425.363281 135.675781 424.699219 136.265625 424.019531 C 133.230469 423.785156 130.234375 423.492188 127.226562 423.210938 C 126.476562 423.84375 125.679688 424.464844 124.925781 425.097656 C 128.097656 425.421875 131.3125 425.746094 134.480469 426.042969 Z M 139.613281 420.023438 C 140.632812 418.742188 141.648438 417.457031 142.664062 416.1875 C 140.261719 416.070312 137.84375 415.980469 135.410156 415.894531 C 134.277344 417.089844 133.082031 418.222656 131.855469 419.300781 C 134.421875 419.566406 137.019531 419.800781 139.613281 420.023438 Z M 126.210938 443.90625 C 131.886719 444.335938 137.578125 444.777344 143.253906 445.175781 C 143.195312 445.011719 143.136719 444.835938 143.136719 444.597656 C 143.136719 443.671875 143.226562 442.742188 143.34375 441.796875 C 142.992188 441.472656 142.785156 441.074219 142.753906 440.601562 C 137.429688 440.175781 132.09375 439.730469 126.800781 439.246094 C 126.621094 439.347656 126.476562 439.496094 126.296875 439.613281 C 126.238281 441.28125 126.210938 443.140625 126.210938 443.90625 Z M 145.085938 436.414062 C 146.191406 434.804688 147.3125 433.195312 148.445312 431.632812 C 144.363281 431.277344 140.261719 430.925781 136.179688 430.554688 C 134.628906 432.179688 133.050781 433.757812 131.429688 435.277344 C 135.972656 435.675781 140.511719 436.058594 145.085938 436.414062 Z M 151.5 427.488281 C 152.058594 426.792969 152.574219 426.058594 153.136719 425.363281 C 149.257812 425.097656 145.410156 424.773438 141.53125 424.480469 C 140.957031 425.15625 140.394531 425.820312 139.820312 426.5 C 143.726562 426.839844 147.589844 427.164062 151.5 427.488281 Z M 156.335938 421.367188 C 157.589844 419.890625 158.84375 418.429688 160.15625 417 C 156.097656 416.761719 152.03125 416.585938 147.972656 416.410156 C 146.925781 417.75 145.878906 419.125 144.804688 420.464844 C 148.636719 420.789062 152.488281 421.085938 156.335938 421.367188 Z M 168.085938 433.121094 C 163.238281 432.769531 158.414062 432.414062 153.5625 432.03125 C 152.398438 433.609375 151.234375 435.21875 150.097656 436.8125 C 154.726562 437.164062 159.34375 437.488281 163.972656 437.8125 C 163.972656 437.8125 163.972656 437.8125 164.003906 437.785156 C 165.535156 436.382812 166.878906 434.773438 168.085938 433.121094 Z M 170.757812 428.949219 C 171.167969 428.195312 171.613281 427.457031 172.011719 426.707031 C 167.46875 426.410156 162.957031 426.058594 158.429688 425.746094 C 157.855469 426.46875 157.265625 427.164062 156.6875 427.902344 C 161.378906 428.269531 166.066406 428.59375 170.757812 428.949219 Z M 176.875 417.957031 C 173.144531 417.722656 169.414062 417.488281 165.667969 417.292969 C 165.667969 417.308594 165.667969 417.339844 165.625 417.367188 C 164.296875 418.800781 163.015625 420.289062 161.730469 421.777344 C 165.859375 422.105469 170.003906 422.414062 174.132812 422.707031 C 175.019531 421.101562 175.917969 419.507812 176.875 417.957031 Z M 186.875 434.390625 C 182.273438 434.082031 177.65625 433.785156 173.058594 433.460938 C 172.039062 435.128906 170.933594 436.691406 169.652344 438.183594 C 174.28125 438.507812 178.894531 438.800781 183.496094 439.082031 C 183.585938 438.773438 183.71875 438.449219 184.011719 438.152344 C 185.121094 436.988281 186.035156 435.703125 186.875 434.390625 Z M 189.175781 430.171875 C 189.5 429.464844 189.792969 428.769531 190.074219 428.078125 C 185.621094 427.695312 181.167969 427.371094 176.699219 427.058594 C 176.332031 427.78125 175.917969 428.535156 175.535156 429.273438 C 180.089844 429.554688 184.632812 429.878906 189.175781 430.171875 Z M 193.773438 419.066406 C 189.835938 418.800781 185.886719 418.546875 181.917969 418.28125 C 180.84375 419.832031 179.824219 421.425781 178.894531 423.0625 C 183.171875 423.386719 187.449219 423.695312 191.710938 424.019531 C 192.375 422.355469 193.050781 420.703125 193.773438 419.066406 Z M 200.21875 410.789062 C 199.40625 400.582031 199.925781 390.328125 199.597656 380.089844 C 188.214844 379.605469 176.816406 379.132812 165.433594 378.617188 C 151.96875 378.027344 137.550781 378.71875 124.203125 376.476562 C 124.203125 387.761719 124.203125 397.351562 124.203125 406.820312 C 149.550781 407.46875 174.898438 408.945312 200.21875 410.789062 Z M 199.6875 438.773438 C 200.277344 437.605469 200.882812 436.472656 201.472656 435.304688 C 198.183594 435.101562 194.910156 434.894531 191.652344 434.6875 C 190.78125 436.355469 189.792969 437.933594 188.628906 439.40625 C 192.257812 439.644531 195.914062 439.878906 199.539062 440.113281 C 199.46875 439.671875 199.496094 439.246094 199.6875 438.773438 Z M 204.464844 429.332031 C 201.148438 429.007812 197.828125 428.710938 194.511719 428.417969 C 194.246094 429.097656 193.953125 429.789062 193.65625 430.46875 C 196.976562 430.675781 200.277344 430.867188 203.59375 431.074219 C 203.890625 430.496094 204.183594 429.878906 204.464844 429.332031 Z M 207.296875 367.035156 C 207.121094 364.941406 207.03125 362.832031 207.03125 360.738281 C 204.878906 360.28125 202.726562 359.570312 200.765625 358.554688 C 200.792969 360.339844 200.824219 362.109375 200.851562 363.863281 C 202.726562 365.117188 204.90625 366.167969 207.296875 367.035156 Z M 207.121094 356.3125 C 207.179688 354.851562 207.265625 353.421875 207.355469 351.988281 C 204.464844 350.21875 202.402344 347.890625 200.601562 345.261719 C 200.632812 347.976562 200.660156 350.691406 200.691406 353.421875 C 202.460938 354.882812 204.847656 355.722656 207.121094 356.3125 Z M 209.566406 420.230469 C 205.867188 419.933594 202.164062 419.683594 198.464844 419.417969 C 197.625 421.027344 196.871094 422.679688 196.164062 424.375 C 199.6875 424.671875 203.210938 424.949219 206.722656 425.273438 C 207.652344 423.578125 208.578125 421.898438 209.566406 420.230469 Z M 217.265625 436.265625 C 213.5625 436.058594 209.890625 435.824219 206.191406 435.585938 C 205.410156 437.195312 204.554688 438.742188 203.800781 440.335938 C 207.414062 440.574219 211.027344 440.808594 214.640625 441.015625 C 214.667969 440.808594 214.699219 440.632812 214.816406 440.410156 C 215.597656 439.007812 216.453125 437.667969 217.265625 436.265625 Z M 219.742188 432.0625 C 219.976562 431.664062 220.199219 431.25 220.433594 430.867188 C 218.28125 430.675781 216.128906 430.496094 213.960938 430.261719 C 212.371094 430.085938 210.761719 429.9375 209.183594 429.789062 C 208.902344 430.320312 208.609375 430.835938 208.34375 431.367188 C 212.132812 431.605469 215.953125 431.824219 219.742188 432.0625 Z M 222.972656 426.792969 C 224.046875 425.039062 225.152344 423.296875 226.261719 421.574219 C 222.308594 421.246094 218.339844 420.9375 214.375 420.613281 C 213.386719 422.296875 212.457031 424.019531 211.5 425.71875 C 214.199219 425.96875 216.910156 426.203125 219.59375 426.46875 C 220.730469 426.589844 221.835938 426.675781 222.972656 426.792969 Z M 226.878906 450.867188 C 227.085938 449.320312 227.144531 447.757812 227.113281 446.179688 C 200.601562 444.480469 174.03125 443.019531 147.53125 440.984375 C 147.621094 441.339844 147.648438 441.707031 147.621094 442.09375 C 147.472656 442.933594 147.515625 443.789062 147.515625 444.597656 C 147.515625 444.953125 147.445312 445.234375 147.339844 445.5 C 173.851562 447.402344 200.367188 449.054688 226.878906 450.867188 Z M 232.4375 437.222656 C 229.03125 436.988281 225.597656 436.796875 222.160156 436.589844 C 221.21875 438.152344 220.257812 439.730469 219.359375 441.339844 C 222.542969 441.515625 225.742188 441.707031 228.914062 441.945312 C 230.257812 440.453125 231.421875 438.890625 232.4375 437.222656 Z M 234.886719 432.988281 C 235.0625 432.710938 235.210938 432.414062 235.386719 432.089844 C 232.011719 431.855469 228.621094 431.632812 225.273438 431.339844 C 225.035156 431.664062 224.828125 432 224.636719 432.355469 C 228.042969 432.5625 231.480469 432.796875 234.886719 432.988281 Z M 237.539062 427.988281 C 238.5 426.175781 239.515625 424.433594 240.59375 422.765625 C 237.453125 422.5 234.3125 422.207031 231.15625 421.984375 C 230.050781 423.695312 228.972656 425.480469 227.867188 427.222656 C 231.066406 427.488281 234.3125 427.753906 237.539062 427.988281 Z M 241.449219 447.136719 C 238.128906 446.902344 234.769531 446.695312 231.449219 446.457031 C 231.480469 448.035156 231.039062 449.613281 230.847656 451.164062 C 234.28125 451.386719 237.835938 451.621094 240.742188 451.886719 C 240.742188 450.542969 240.742188 449.230469 240.742188 447.890625 C 240.742188 447.832031 241.125 447.800781 241.125 447.757812 C 241.09375 447.566406 241.417969 447.371094 241.449219 447.136719 Z M 243.894531 442.933594 C 244.914062 441.367188 245.960938 439.761719 246.976562 438.183594 C 243.777344 437.945312 240.546875 437.753906 237.304688 437.546875 C 236.375 439.1875 235.359375 440.75 234.253906 442.296875 C 237.480469 442.503906 240.679688 442.742188 243.894531 442.933594 Z M 249.75 433.992188 C 249.957031 433.699219 250.164062 433.375 250.371094 433.050781 C 246.917969 432.859375 243.511719 432.652344 240.078125 432.445312 C 239.929688 432.738281 239.753906 433.035156 239.605469 433.316406 C 242.980469 433.519531 246.375 433.757812 249.75 433.992188 Z M 253.066406 428.949219 C 254.113281 427.339844 255.148438 425.71875 256.136719 424.082031 C 252.609375 423.785156 249.058594 423.460938 245.519531 423.179688 C 245.472656 423.269531 245.445312 423.386719 245.371094 423.492188 C 244.25 425.039062 243.277344 426.648438 242.316406 428.3125 C 245.902344 428.535156 249.484375 428.742188 253.066406 428.949219 Z M 256.679688 452.933594 C 256.828125 451.355469 256.5625 449.820312 256.59375 448.242188 C 253.1875 447.976562 249.957031 447.710938 246.550781 447.492188 C 246.433594 447.667969 246.578125 447.800781 246.578125 447.976562 C 246.578125 449.378906 246.578125 450.78125 246.578125 452.183594 C 249.484375 452.402344 253.214844 452.667969 256.679688 452.933594 Z M 258.289062 444.023438 C 259.511719 442.445312 260.707031 440.839844 261.902344 439.246094 C 258.613281 439.007812 255.28125 438.773438 251.992188 438.535156 C 250.945312 440.113281 249.898438 441.707031 248.878906 443.285156 C 251.992188 443.523438 255.148438 443.757812 258.289062 444.023438 Z M 264.894531 435.101562 C 265.160156 434.714844 265.453125 434.304688 265.75 433.933594 C 262.285156 433.726562 258.832031 433.519531 255.398438 433.34375 C 255.175781 433.667969 254.96875 434.023438 254.734375 434.332031 C 258.140625 434.597656 261.515625 434.835938 264.894531 435.101562 Z M 268.507812 429.789062 C 269.449219 428.328125 270.378906 426.839844 271.277344 425.363281 C 267.871094 425.070312 264.4375 424.773438 261.03125 424.480469 C 260.058594 426.085938 259.070312 427.664062 258.082031 429.214844 C 261.546875 429.421875 265.011719 429.582031 268.507812 429.789062 Z M 271.367188 454.070312 C 271.367188 454.011719 271.339844 453.980469 271.339844 453.90625 C 271.339844 452.402344 271.308594 450.929688 271.21875 449.4375 C 267.726562 449.144531 264.261719 448.847656 260.765625 448.566406 C 260.765625 450.117188 260.734375 451.652344 260.589844 453.171875 C 260.589844 453.199219 260.558594 453.230469 260.558594 453.257812 C 264.171875 453.554688 267.785156 453.804688 271.367188 454.070312 Z M 274.746094 440.261719 C 272.148438 440.054688 269.570312 439.851562 266.972656 439.644531 C 265.808594 441.25 264.644531 442.84375 263.449219 444.421875 C 266.324219 444.660156 269.242188 444.894531 272.132812 445.160156 C 272.886719 443.464844 273.785156 441.828125 274.746094 440.261719 Z M 277.546875 436.117188 C 277.898438 435.644531 278.238281 435.160156 278.59375 434.65625 C 275.996094 434.523438 273.402344 434.332031 270.777344 434.199219 C 270.496094 434.628906 270.203125 435.070312 269.90625 435.511719 C 272.472656 435.675781 275.007812 435.910156 277.546875 436.117188 Z M 284.019531 426.46875 C 281.394531 426.234375 278.769531 425.996094 276.117188 425.804688 C 275.273438 427.222656 274.433594 428.652344 273.519531 430.054688 C 276.203125 430.203125 278.859375 430.378906 281.542969 430.527344 C 282.441406 429.214844 283.253906 427.871094 284.019531 426.46875 Z M 275.628906 454.394531 C 278.679688 454.660156 281.777344 454.925781 284.832031 455.175781 C 284.652344 453.65625 284.417969 452.183594 284.269531 450.664062 C 281.394531 450.367188 278.503906 450.117188 275.597656 449.851562 C 275.6875 451.195312 275.71875 452.550781 275.71875 453.90625 C 275.71875 454.097656 275.660156 454.246094 275.628906 454.394531 Z M 288.886719 441.515625 C 285.789062 441.222656 282.675781 440.957031 279.550781 440.660156 C 278.503906 442.238281 277.488281 443.875 276.675781 445.558594 C 279.726562 445.851562 282.796875 446.117188 285.847656 446.429688 C 286.746094 444.746094 287.792969 443.109375 288.886719 441.515625 Z M 291.789062 437.429688 C 292.234375 436.839844 292.644531 436.265625 293.042969 435.675781 C 289.933594 435.453125 286.777344 435.21875 283.636719 435.011719 C 283.253906 435.511719 282.882812 436.027344 282.5 436.558594 C 285.582031 436.8125 288.707031 437.136719 291.789062 437.429688 Z M 298.175781 427.664062 C 295.035156 427.398438 291.878906 427.105469 288.738281 426.839844 C 288.089844 428.238281 287.308594 429.554688 286.496094 430.867188 C 289.636719 431.074219 292.75 431.308594 295.90625 431.574219 C 296.714844 430.320312 297.496094 429.007812 298.175781 427.664062 Z M 298.441406 452.210938 C 298.441406 452.183594 298.410156 452.152344 298.410156 452.121094 C 295.167969 451.769531 291.9375 451.414062 288.707031 451.105469 C 288.886719 452.582031 289.078125 454.070312 289.253906 455.558594 C 292.320312 455.824219 295.375 456.046875 298.410156 456.339844 C 298.292969 454.628906 298.292969 452.992188 298.292969 452.992188 C 298.292969 452.699219 298.351562 452.433594 298.441406 452.210938 Z M 303.96875 443.050781 C 300.5625 442.683594 297.1875 442.328125 293.78125 441.972656 C 292.644531 443.582031 291.554688 445.234375 290.566406 446.929688 C 293.632812 447.226562 296.6875 447.550781 299.753906 447.890625 C 299.929688 447.917969 300.035156 447.976562 300.179688 448.035156 C 301.40625 446.355469 302.65625 444.6875 303.96875 443.050781 Z M 307.347656 439.039062 C 307.90625 438.417969 308.453125 437.8125 309.011719 437.195312 C 305.339844 436.796875 301.640625 436.414062 297.9375 436.089844 C 297.527344 436.691406 297.097656 437.28125 296.6875 437.902344 C 300.238281 438.242188 303.792969 438.625 307.347656 439.039062 Z M 311.019531 419.933594 C 309.21875 408.339844 310.121094 396.65625 310.296875 384.960938 C 293.339844 384.148438 276.410156 383.308594 259.511719 382.597656 C 241.003906 381.847656 222.5 381.050781 204.007812 380.296875 C 204.289062 390.566406 203.773438 400.875 204.613281 411.144531 C 240.078125 413.796875 275.539062 417.117188 311.019531 419.933594 Z M 317.847656 429.242188 C 312.832031 428.832031 307.789062 428.417969 302.777344 428.019531 C 302.140625 429.390625 301.433594 430.6875 300.652344 431.972656 C 304.78125 432.328125 308.894531 432.769531 313.039062 433.253906 C 314.542969 431.824219 316.152344 430.496094 317.847656 429.242188 Z M 321.796875 436 C 321.28125 434.894531 320.867188 433.785156 320.542969 432.621094 C 318.65625 434.050781 316.871094 435.570312 315.164062 437.195312 C 315.164062 437.195312 315.164062 437.195312 315.132812 437.195312 C 313.527344 438.742188 311.992188 440.335938 310.503906 442.03125 C 310.386719 442.710938 309.972656 443.257812 309.25 443.464844 C 306.859375 446.296875 304.621094 449.261719 302.511719 452.242188 C 302.597656 452.476562 302.65625 452.699219 302.65625 452.992188 C 302.65625 452.992188 302.628906 454.425781 302.746094 455.882812 C 309.941406 450.542969 317.257812 443.789062 321.796875 436 Z M 305.046875 372.316406 C 311.253906 372.289062 317.523438 372.347656 323.816406 372.316406 C 322.964844 367.449219 323.316406 362.550781 323.847656 357.65625 C 321.429688 357.59375 319.011719 357.476562 316.535156 357.328125 C 289.3125 355.679688 261.988281 356.402344 234.769531 354.941406 C 227.925781 354.558594 218.636719 356.015625 211.601562 353.921875 C 211.351562 358.789062 211.261719 363.628906 211.75 368.4375 C 224.078125 371.699219 239.929688 371.667969 250.382812 372.140625 C 268.566406 372.953125 286.835938 372.347656 305.046875 372.316406 Z M 333.609375 458.304688 C 333.609375 457.078125 333.976562 455.914062 333.976562 455.914062 C 331.074219 455.707031 327.105469 455.5 323.878906 455.351562 C 323.789062 455.351562 323.257812 455.324219 323.167969 455.292969 C 323.109375 455.351562 323.082031 455.382812 323.023438 455.414062 C 322.992188 456.179688 323.140625 456.933594 323.023438 457.683594 C 326.488281 457.890625 330.171875 458.1875 333.609375 458.539062 C 333.609375 458.453125 333.609375 458.363281 333.609375 458.304688 Z M 334.273438 451.621094 C 335.878906 449.613281 337.429688 447.519531 338.875 445.394531 C 336.691406 445.070312 334.507812 444.746094 332.328125 444.363281 C 330.335938 446.578125 328.449219 448.847656 326.589844 451.164062 C 329.140625 451.296875 331.707031 451.445312 334.273438 451.621094 Z M 336.867188 345.324219 C 339.464844 344.335938 342.089844 343.34375 344.566406 342.121094 C 321.855469 341.441406 299.191406 340.484375 276.527344 339.4375 C 255.222656 338.449219 233.78125 336.839844 212.339844 335.351562 C 213.917969 337.519531 215.390625 339.761719 217.175781 341.738281 C 256.945312 345.527344 296.332031 345.324219 336.867188 345.324219 Z M 341.675781 441.398438 C 342.398438 440.292969 343.164062 439.1875 343.886719 438.066406 C 342.117188 437.902344 340.304688 437.726562 338.535156 437.519531 C 338.476562 437.488281 338.417969 437.460938 338.359375 437.460938 C 337.472656 438.476562 336.574219 439.464844 335.703125 440.484375 C 337.679688 440.808594 339.671875 441.101562 341.675781 441.398438 Z M 347.914062 459.792969 C 348.03125 458.789062 348.179688 457.832031 348.296875 456.84375 C 344.667969 456.667969 341.070312 456.429688 337.457031 456.195312 C 337.457031 456.695312 337.472656 457.890625 337.5625 458.96875 C 341.011719 459.320312 344.449219 459.617188 347.914062 459.792969 Z M 348.488281 431.398438 C 346.894531 431.277344 345.289062 431.160156 343.710938 431.074219 C 343.046875 431.898438 342.367188 432.679688 341.703125 433.460938 C 343.371094 433.667969 344.992188 433.847656 346.660156 434.023438 C 347.265625 433.121094 347.882812 432.265625 348.488281 431.398438 Z M 349.890625 452.640625 C 350.996094 450.75 352.128906 448.921875 353.324219 447.078125 C 350.125 446.78125 346.925781 446.429688 343.710938 446.03125 C 342.308594 448.035156 340.894531 450.027344 339.433594 451.976562 C 342.929688 452.242188 346.394531 452.476562 349.890625 452.640625 Z M 353.101562 333.609375 C 353.101562 329.9375 353.148438 326.292969 354.003906 322.707031 C 280.714844 320.113281 207.472656 315.097656 134.15625 313.871094 C 132.859375 316.867188 132.386719 320.082031 132.269531 323.285156 C 179.175781 323.136719 226.613281 328.359375 273.433594 330.542969 C 299.972656 331.765625 326.515625 332.929688 353.101562 333.609375 Z M 356.125 442.960938 C 356.90625 441.796875 357.734375 440.660156 358.542969 439.496094 C 355.285156 439.246094 352.011719 438.949219 348.78125 438.597656 C 348 439.730469 347.234375 440.867188 346.484375 442.003906 C 349.683594 442.386719 352.898438 442.710938 356.125 442.960938 Z M 361.464844 435.394531 C 362.1875 434.363281 362.910156 433.316406 363.648438 432.296875 C 360.269531 432.089844 356.90625 431.929688 353.558594 431.722656 C 352.898438 432.652344 352.25 433.582031 351.613281 434.523438 C 354.871094 434.835938 358.160156 435.128906 361.464844 435.394531 Z M 363.5 457.136719 L 363.851562 457.109375 C 360.121094 457.226562 356.390625 457.167969 352.632812 457.019531 C 352.511719 457.980469 352.21875 458.9375 352.070312 459.898438 C 352.484375 459.898438 352.691406 459.925781 353.101562 459.925781 C 356.539062 459.898438 360.210938 459.792969 363.117188 459.765625 C 363.117188 458.878906 363.117188 458.039062 363.117188 457.199219 C 363.117188 457.167969 363.5 457.167969 363.5 457.136719 Z M 365.296875 452.699219 C 366.066406 451.105469 366.933594 449.554688 367.894531 448.066406 C 364.695312 447.917969 361.523438 447.757812 358.308594 447.519531 C 357.144531 449.230469 356.007812 451.015625 354.902344 452.816406 C 358.367188 452.90625 361.832031 452.875 365.296875 452.699219 Z M 373.804688 479.722656 C 373.4375 477.246094 372.847656 474.796875 372.035156 472.4375 C 323.082031 468.277344 274.050781 464.941406 225.066406 461.152344 C 191.03125 458.539062 157.011719 455.914062 123.011719 453.199219 C 109.3125 452.09375 94.625 452.242188 80.953125 449.851562 C 80.761719 451.164062 80.644531 452.476562 80.558594 453.773438 C 107.554688 457.859375 134.777344 459.984375 161.96875 462.433594 C 186.34375 464.617188 210.613281 468.246094 235.0625 469.808594 C 259.335938 471.359375 283.695312 471.699219 307.9375 473.570312 C 329.96875 475.238281 351.792969 478.292969 373.804688 479.722656 Z M 356.878906 370.886719 C 366.449219 369.867188 379.558594 370.386719 380.546875 359.054688 C 364.8125 368.320312 345.496094 367.816406 327.652344 367.242188 C 327.710938 368.9375 327.859375 370.621094 328.242188 372.289062 C 337.828125 372.199219 347.441406 371.90625 356.878906 370.886719 Z M 370.785156 443.816406 C 371.566406 442.769531 372.363281 441.679688 373.171875 440.632812 C 369.972656 440.441406 366.757812 440.203125 363.558594 439.9375 C 362.777344 441.074219 361.949219 442.210938 361.167969 443.316406 C 364.371094 443.550781 367.570312 443.699219 370.785156 443.816406 Z M 372.847656 467.832031 C 374.191406 466.816406 375.414062 465.679688 376.609375 464.515625 C 367.570312 463.539062 358.367188 464.75 349.3125 464.191406 C 339.640625 463.597656 330.027344 462.285156 320.324219 461.917969 C 318.863281 461.859375 318.183594 460.664062 318.214844 459.558594 C 318.125 459.203125 318.113281 458.847656 318.214844 458.421875 C 318.507812 457.285156 318.65625 456.179688 318.6875 455 C 318.6875 454.277344 319.011719 453.746094 319.4375 453.40625 C 319.496094 453.199219 319.558594 452.992188 319.703125 452.785156 C 325.5 445.070312 332.179688 438.09375 338.359375 430.71875 C 333.667969 430.410156 329.007812 430.054688 324.304688 429.699219 C 324.628906 431.160156 325.011719 432.59375 325.648438 433.933594 C 326.488281 434.523438 327.019531 435.617188 326.414062 436.796875 C 321.371094 446.296875 312.390625 454.335938 303.765625 460.546875 C 303.453125 460.753906 303.160156 460.871094 302.863281 460.898438 C 302.597656 461.019531 302.289062 461.03125 301.933594 461.019531 C 233.265625 454.777344 164.296875 451.945312 95.613281 445.707031 C 94.773438 445.617188 94.210938 445.160156 93.871094 444.570312 C 93.636719 444.335938 93.398438 444.023438 93.3125 443.550781 C 93.03125 442.03125 92.738281 440.511719 92.472656 439.007812 C 89.242188 441.339844 85.96875 443.582031 82.589844 445.707031 C 96.804688 448.125 113.042969 448.007812 127.433594 449.171875 C 160.964844 451.828125 194.484375 454.425781 228.015625 457.019531 C 276.203125 460.753906 324.453125 464.011719 372.613281 468.128906 C 372.699219 468.039062 372.757812 467.921875 372.847656 467.832031 Z M 374.78125 459.984375 C 374.78125 458.703125 374.78125 458.125 374.78125 456.238281 C 372.613281 456.519531 370.636719 456.726562 368.484375 456.871094 C 368.453125 456.933594 368.601562 457.019531 368.570312 457.078125 C 368.570312 457.136719 368.941406 457.136719 368.941406 457.199219 C 368.941406 458.039062 368.941406 458.878906 368.941406 459.734375 C 371.859375 459.765625 372.582031 459.835938 374.78125 459.984375 Z M 379.113281 342.960938 C 377.050781 342.875 375.058594 342.785156 373.203125 342.753906 C 366.242188 342.667969 359.238281 342.488281 352.277344 342.3125 C 348.058594 345.792969 342.898438 347.652344 337.828125 349.628906 C 337.429688 349.777344 337.046875 349.777344 336.691406 349.6875 C 295.964844 349.6875 256.386719 349.894531 216.453125 346.046875 C 216.011719 346.03125 215.6875 345.882812 215.390625 345.675781 C 214.996094 345.617188 214.609375 345.441406 214.257812 345.058594 C 211.527344 342.0625 209.566406 338.449219 206.78125 335.527344 C 206.632812 335.761719 206.515625 336.027344 206.339844 336.222656 C 205.144531 337.402344 203.890625 338.507812 202.636719 339.613281 C 213.445312 352.433594 229.84375 350.515625 246.078125 351.03125 C 263.066406 351.5625 280.023438 351.652344 296.980469 352.078125 C 311.371094 352.492188 326.058594 354.558594 340.453125 353.539062 C 350.300781 352.875 358.308594 349.925781 367.671875 347.503906 C 367.671875 347.503906 376.195312 345.085938 379.113281 342.960938 Z M 376.609375 334.066406 C 376.636719 330.511719 376.609375 326.957031 376.253906 323.402344 C 370.3125 323.253906 364.371094 323.078125 358.425781 322.886719 C 357.4375 326.410156 357.46875 330.054688 357.46875 333.699219 C 361.109375 333.785156 364.753906 333.890625 368.394531 333.949219 C 371.136719 333.976562 373.867188 334.039062 376.609375 334.066406 Z M 376.34375 436.5 C 377.199219 435.351562 378.007812 434.230469 378.789062 433.050781 C 375.441406 432.886719 372.097656 432.738281 368.75 432.5625 C 368.011719 433.640625 367.257812 434.714844 366.507812 435.761719 C 369.796875 436.027344 373.054688 436.265625 376.34375 436.5 Z M 380.339844 448.421875 C 377.832031 448.390625 375.324219 448.332031 372.847656 448.242188 C 371.949219 449.585938 371.109375 450.988281 370.3125 452.386719 C 372.097656 452.242188 373.867188 452.0625 375.648438 451.796875 C 376.195312 451.710938 376.636719 451.855469 377.050781 452.0625 C 378.1875 450.867188 379.292969 449.675781 380.339844 448.421875 Z M 380.664062 353.773438 C 380.691406 351.679688 380.691406 349.613281 380.722656 347.535156 C 379.703125 348.15625 378.585938 348.671875 377.476562 349.113281 C 360.933594 355.574219 345.171875 357.800781 328.210938 357.714844 C 328.007812 359.394531 327.828125 361.152344 327.753906 362.863281 C 345.699219 363.453125 365.210938 364.117188 380.664062 353.773438 Z M 384.039062 455.972656 C 383.773438 455.738281 383.539062 455.441406 383.390625 455.027344 C 383.140625 454.160156 382.847656 453.316406 382.582031 452.433594 C 381.859375 453.289062 381.089844 454.128906 380.339844 454.941406 C 380.515625 455.207031 380.605469 455.53125 380.605469 455.914062 C 380.605469 457.535156 380.605469 459.144531 380.605469 460.28125 C 381.796875 458.878906 382.933594 457.449219 384.039062 455.972656 Z M 383.507812 444.1875 C 384.1875 443.257812 384.851562 442.355469 385.5 441.429688 C 383.109375 441.28125 380.691406 441.132812 378.304688 440.984375 C 377.507812 441.972656 376.753906 442.960938 375.972656 443.964844 C 378.304688 444.023438 380.632812 444.054688 382.964844 444.070312 C 383.199219 444.070312 383.332031 444.128906 383.507812 444.1875 Z M 386.988281 451.917969 C 387.800781 450.75 388.640625 449.585938 389.453125 448.421875 C 389.289062 448.214844 389.140625 448.007812 389.054688 447.757812 C 388.757812 446.929688 388.433594 446.148438 388.09375 445.324219 C 387.417969 446.324219 386.695312 447.226562 385.957031 448.183594 C 386.253906 449.4375 386.605469 450.691406 386.988281 451.917969 Z M 388.316406 437.222656 C 389.113281 436 389.921875 434.773438 390.707031 433.550781 C 388.433594 433.460938 386.132812 433.375 383.863281 433.253906 C 383.109375 434.480469 382.316406 435.644531 381.472656 436.796875 C 383.363281 436.914062 385.265625 437.046875 387.152344 437.136719 C 387.359375 437.164062 387.503906 437.222656 387.683594 437.28125 C 387.890625 437.222656 388.09375 437.195312 388.316406 437.222656 Z M 399.082031 425.070312 C 399.863281 412.738281 398.699219 400.402344 399.625 388.117188 C 371.300781 387.792969 342.988281 386.539062 314.660156 385.164062 C 314.453125 396.90625 313.4375 408.664062 315.488281 420.289062 C 343.339844 422.472656 371.195312 424.226562 399.082031 425.070312 Z M 400.4375 324.597656 C 400.15625 324.449219 399.921875 324.257812 399.714844 323.992188 C 393.359375 323.875 387.019531 323.695312 380.664062 323.519531 C 380.972656 327.046875 381.003906 330.570312 380.972656 334.097656 C 387.179688 334.15625 393.417969 334.125 399.625 333.949219 C 399.863281 330.835938 400.097656 327.722656 400.4375 324.597656 Z M 400.730469 433.875 C 399.125 433.816406 397.503906 433.757812 395.867188 433.699219 C 395.777344 433.90625 395.660156 434.082031 395.496094 434.230469 C 393.980469 436.5 392.488281 438.773438 390.96875 441.074219 C 391.414062 442.152344 391.898438 443.199219 392.34375 444.273438 C 394.9375 440.632812 397.679688 437.105469 400.730469 433.875 Z M 399.507812 319.609375 C 403.417969 238.550781 403.875 156.859375 404.640625 75.679688 C 391.03125 76.699219 377.019531 75.929688 363.441406 76.019531 C 333.375 76.226562 303.335938 76.375 273.300781 76.582031 C 243.054688 76.757812 212.796875 76.933594 182.554688 77.304688 C 170.003906 77.449219 150.996094 75.769531 139.878906 78.011719 C 136.238281 114.933594 136.296875 152.683594 135.011719 189.710938 C 134.082031 216.144531 133.230469 242.578125 133.082031 269.042969 C 133.023438 278.085938 132.976562 287.113281 133.347656 296.15625 C 133.730469 305.035156 131.578125 308.828125 141.457031 310.050781 C 146.925781 310.730469 152.425781 309.875 157.914062 310.023438 C 169.503906 310.347656 181.078125 310.730469 192.640625 311.1875 C 215.804688 312.074219 238.941406 313.179688 262.078125 314.285156 C 307.847656 316.496094 353.648438 318.800781 399.507812 319.609375 Z M 403.976562 439.066406 C 403.933594 438.859375 403.902344 438.65625 403.902344 438.417969 C 403.902344 437.945312 403.902344 437.429688 403.902344 436.882812 C 393.980469 447.285156 388.035156 460.957031 376.785156 470.191406 C 376.902344 470.828125 376.816406 471.445312 376.460938 471.933594 C 377.167969 474.042969 377.65625 476.195312 378.039062 478.351562 C 387.683594 465.902344 396.042969 452.667969 403.976562 439.066406 Z M 417.75 332.902344 C 418.425781 328.890625 418.53125 324.804688 418.457031 320.71875 C 413.871094 321.632812 409.300781 322.355469 404.90625 323.84375 C 404.492188 327.164062 404.257812 330.511719 404.007812 333.859375 C 408.015625 333.757812 413.839844 333.933594 417.75 332.902344 Z M 422.644531 116.601562 C 422.820312 106.421875 423.144531 96.257812 423.203125 86.050781 C 418.425781 83.308594 413.679688 80.546875 408.976562 77.6875 C 408.253906 158.171875 407.75 239.199219 403.875 319.582031 C 407.75 318.296875 411.777344 317.574219 415.800781 316.824219 C 418.972656 301.746094 417.660156 284.664062 418.042969 269.160156 C 418.53125 249.214844 419.03125 229.316406 419.5625 209.402344 C 419.992188 192.039062 419.84375 174.398438 420.167969 156.859375 C 420.050781 156.472656 420.050781 156.089844 420.167969 155.722656 C 420.433594 143.007812 420.917969 130.335938 422.128906 117.796875 C 422.171875 117.292969 422.378906 116.925781 422.644531 116.601562 Z M 442.492188 358.96875 C 423.601562 359.511719 404.726562 359.511719 386.046875 356.105469 C 386.164062 362.921875 384.96875 369.398438 378.703125 371.152344 C 358.542969 376.890625 336.808594 376.65625 315.945312 376.65625 C 292.410156 376.683594 268.34375 378.292969 244.855469 376.109375 C 230.582031 374.796875 210.644531 375.929688 198.300781 367.449219 L 198.300781 367.421875 C 197.328125 367.273438 196.488281 366.609375 196.488281 365.382812 C 196.488281 361.992188 196.429688 358.582031 196.339844 355.207031 C 195.988281 354.792969 195.707031 354.335938 195.410156 353.863281 C 195.351562 353.863281 195.265625 353.863281 195.207031 353.863281 C 173.5 359.175781 152 365 131.195312 373.070312 C 144.183594 374.472656 159.195312 373.96875 172.128906 374.53125 C 203.210938 375.902344 234.339844 377.214844 265.425781 378.46875 C 310.5625 380.296875 355.832031 383.277344 400.996094 383.765625 C 401.320312 383.765625 401.574219 383.851562 401.808594 383.941406 C 415.832031 376.359375 428.765625 367.007812 442.492188 358.96875 Z M 434.796875 299.386719 C 435.414062 295.949219 435.722656 292.335938 435.902344 288.660156 C 431.300781 287.554688 426.640625 286.789062 422.230469 285.078125 C 422.230469 290.210938 422.230469 295.359375 422.023438 300.492188 C 422.15625 300.492188 422.261719 300.492188 422.410156 300.492188 C 422.761719 300.402344 423.144531 300.34375 423.574219 300.316406 C 427.363281 300.285156 431.066406 299.886719 434.796875 299.386719 Z M 436.019531 284.238281 C 436.046875 281.789062 436.078125 279.324219 436.109375 276.890625 C 431.535156 275.519531 426.90625 274.292969 422.320312 272.980469 C 422.261719 275.429688 422.230469 277.878906 422.230469 280.355469 C 426.582031 282.421875 431.328125 283.203125 436.019531 284.238281 Z M 436.226562 269.882812 C 436.285156 268.347656 436.3125 266.769531 436.371094 265.222656 C 431.875 263.730469 427.304688 262.433594 422.613281 261.753906 C 422.554688 263.996094 422.496094 266.210938 422.4375 268.453125 C 426.980469 269.796875 431.59375 271.003906 436.167969 272.332031 C 436.167969 271.519531 436.195312 270.710938 436.226562 269.882812 Z M 436.519531 260.679688 C 436.59375 258.40625 436.652344 256.105469 436.742188 253.804688 C 432.140625 252.433594 427.480469 251.265625 422.910156 249.867188 C 422.851562 252.375 422.792969 254.882812 422.703125 257.390625 C 427.421875 258.054688 431.992188 259.246094 436.519531 260.679688 Z M 436.890625 249.246094 C 436.949219 246.914062 437.035156 244.585938 437.125 242.253906 C 432.496094 240.851562 427.804688 239.6875 423.203125 238.285156 C 423.144531 240.71875 423.085938 243.109375 423.027344 245.5 C 423.25 245.5 423.515625 245.5 423.78125 245.574219 C 428.128906 246.886719 432.523438 247.992188 436.890625 249.246094 Z M 437.273438 237.710938 C 437.332031 235.378906 437.421875 233.050781 437.480469 230.71875 C 432.847656 229.289062 428.128906 228.121094 423.484375 226.722656 C 423.425781 229.109375 423.382812 231.5 423.324219 233.859375 C 423.457031 233.890625 423.601562 233.859375 423.78125 233.917969 C 428.261719 235.292969 432.789062 236.398438 437.273438 237.710938 Z M 437.996094 214.625 C 438.054688 212.292969 438.113281 209.933594 438.140625 207.601562 C 433.453125 206.140625 428.707031 204.949219 423.988281 203.546875 C 423.957031 205.90625 423.898438 208.265625 423.867188 210.625 C 428.558594 212.058594 433.304688 213.222656 437.996094 214.625 Z M 438.203125 203.03125 C 438.230469 200.683594 438.261719 198.324219 438.289062 195.964844 C 433.601562 194.519531 428.824219 193.324219 424.105469 191.921875 C 424.105469 194.28125 424.074219 196.640625 424.046875 199.003906 C 428.734375 200.433594 433.511719 201.628906 438.203125 203.03125 Z M 438.320312 191.390625 C 438.347656 189.058594 438.347656 186.699219 438.378906 184.339844 C 433.6875 182.878906 428.910156 181.65625 424.191406 180.28125 C 424.164062 182.644531 424.164062 185.019531 424.132812 187.378906 C 428.851562 188.792969 433.628906 189.988281 438.320312 191.390625 Z M 438.4375 179.796875 C 438.4375 177.921875 438.46875 176.0625 438.496094 174.191406 C 433.75 172.507812 428.910156 171.019531 424.28125 169.011719 C 424.25 171.253906 424.222656 173.496094 424.222656 175.738281 C 428.941406 177.171875 433.71875 178.367188 438.4375 179.796875 Z M 438.613281 169.617188 C 438.644531 167.582031 438.703125 165.5625 438.792969 163.527344 C 434.101562 161.667969 429.175781 160.738281 424.429688 159.128906 C 424.398438 160.871094 424.339844 162.65625 424.339844 164.394531 C 424.515625 164.46875 424.679688 164.46875 424.855469 164.542969 C 429.296875 166.625 433.984375 168.023438 438.613281 169.617188 Z M 438.953125 158.980469 C 439.085938 156.355469 439.21875 153.761719 439.394531 151.132812 C 434.472656 149.925781 429.574219 148.597656 424.710938 147.035156 C 424.648438 149.542969 424.546875 152.050781 424.488281 154.558594 C 429.207031 156.414062 434.21875 157.257812 438.953125 158.980469 Z M 439.691406 146.707031 C 439.898438 144.320312 440.132812 141.929688 440.382812 139.570312 C 435.519531 137.472656 430.828125 134.996094 425.710938 133.683594 C 425.5625 133.625 425.445312 133.59375 425.328125 133.535156 C 425.152344 136.546875 425.003906 139.511719 424.855469 142.519531 C 429.753906 144.113281 434.707031 145.453125 439.691406 146.707031 Z M 448.347656 408.886719 C 448.257812 392.601562 447.992188 376.359375 449.304688 360.164062 C 433.835938 368.734375 419.59375 379.308594 404.007812 387.734375 C 403.03125 400.210938 404.257812 412.707031 403.445312 425.1875 C 404.582031 425.214844 405.6875 425.273438 406.824219 425.304688 C 407.929688 425.335938 408.796875 425.71875 409.507812 426.261719 C 411.777344 427.398438 413.089844 429.390625 413.648438 431.691406 C 424.074219 422.707031 435.84375 414.492188 448.347656 408.886719 Z M 476.261719 467.921875 C 476.261719 467.863281 476.203125 467.804688 476.203125 467.746094 C 475.757812 463.480469 472.957031 460.015625 470.375 456.695312 C 456.414062 456.578125 442.109375 458.421875 433.304688 460.753906 C 430.59375 461.476562 423.542969 462.996094 421.566406 466.34375 C 438.644531 469.117188 457.84375 469.898438 476.261719 467.921875 Z M 478.089844 460.398438 C 482.71875 459.765625 487.4375 459.144531 492.171875 458.910156 C 487.1875 457.773438 481.613281 457.109375 475.816406 456.8125 C 476.628906 457.980469 477.425781 459.175781 478.089844 460.398438 Z M 500.5625 463.421875 C 493.703125 462.730469 486.65625 463.570312 479.902344 464.527344 C 480.152344 465.445312 480.390625 466.402344 480.507812 467.390625 C 487.394531 466.492188 494.117188 465.179688 500.5625 463.421875 Z M 502.332031 474.25 C 503.671875 471.964844 504.234375 469.5 504.234375 466.949219 C 478.382812 474.558594 447.640625 474.855469 421.390625 470.710938 C 423.398438 478.203125 432.464844 480.535156 439.632812 480.164062 C 460.554688 479 481.789062 478.585938 502.332031 474.25 Z M 507.226562 427.902344 C 517.222656 432.621094 525.734375 438.980469 524.65625 450.988281 C 524.035156 457.59375 518.625 462.035156 512.757812 464.011719 C 513.257812 469.46875 512.566406 474.914062 509.320312 479.546875 C 509.011719 480.859375 508.066406 481.964844 506.328125 482.347656 C 488.5 486.347656 470.980469 486.082031 452.949219 487.792969 C 444.144531 488.617188 432.582031 491.039062 424.28125 486.625 C 413.839844 481.125 407.292969 466.371094 418.074219 457.890625 C 429.089844 449.230469 447.609375 449.410156 460.867188 449.230469 C 478.796875 449.023438 497.464844 446.871094 512.269531 458.644531 C 512.503906 458.847656 512.710938 459.054688 512.875 459.261719 C 524.597656 453.90625 518.964844 438.242188 508.832031 433.460938 C 504.144531 431.25 498.746094 428.859375 493.644531 427.605469 C 489.765625 426.648438 484.179688 426.558594 480.859375 424.140625 C 478.929688 422.738281 477.070312 421.1875 476.925781 418.546875 C 476.203125 406.613281 467.25 406.128906 457.0625 404.933594 C 457.0625 407 457.089844 409.035156 457.089844 411.085938 C 457.089844 411.628906 457.003906 412.101562 456.855469 412.542969 C 456.796875 413.769531 456.117188 414.933594 454.554688 415.597656 C 441.785156 421.054688 431.125 429.097656 420.253906 437.519531 C 410.964844 444.71875 406.246094 452.667969 399.890625 462.433594 C 394.496094 470.769531 388.789062 478.910156 382.609375 486.683594 C 381.710938 487.820312 380.632812 488.234375 379.617188 488.203125 C 378.996094 488.558594 378.246094 488.75 377.34375 488.707031 C 352.25 487.277344 327.429688 483.453125 302.378906 481.933594 C 276.203125 480.371094 249.925781 480.078125 223.839844 477.6875 C 174.8125 473.230469 125.074219 469.5 76.414062 461.949219 C 74.261719 461.621094 73.300781 460.132812 73.273438 458.464844 C 72.371094 457.773438 71.722656 456.695312 71.753906 455.175781 C 71.8125 450.988281 72.535156 446.8125 73.359375 442.742188 C 73.566406 441.796875 74.113281 441.042969 74.851562 440.484375 C 75.070312 440.234375 75.367188 439.96875 75.75 439.730469 C 90.054688 430.953125 102.765625 419.996094 115.460938 409.09375 C 115.460938 398.898438 109.488281 375.960938 118.425781 368.203125 C 121.492188 365.515625 127.640625 365.058594 131.578125 363.570312 C 138.09375 361.121094 144.6875 358.878906 151.320312 356.785156 C 164.636719 352.578125 178.128906 349.054688 191.652344 345.734375 C 191.859375 343.832031 192.0625 341.945312 192.316406 340.042969 C 192.316406 339.910156 192.34375 339.761719 192.375 339.613281 C 192.152344 338.242188 192.492188 336.78125 193.570312 335.851562 C 194.21875 335.320312 194.851562 334.804688 195.472656 334.242188 C 172.660156 332.8125 149.804688 331.765625 127.109375 332.03125 C 125.105469 332.0625 123.792969 330.925781 123.246094 329.492188 C 122.804688 328.917969 122.480469 328.179688 122.390625 327.3125 C 121.609375 320.464844 121.636719 313.664062 124.71875 307.425781 C 122.773438 298.488281 124.351562 284.371094 124.320312 279.972656 C 124.234375 252.816406 125.042969 225.671875 125.945312 198.53125 C 127.34375 157.285156 127.109375 115.171875 131.488281 74.074219 C 131.785156 71.417969 133.90625 70.046875 135.972656 69.914062 C 136.03125 69.914062 136.089844 69.882812 136.148438 69.855469 C 149.730469 66.519531 166.480469 68.746094 180.28125 68.601562 C 210.304688 68.214844 240.3125 68.039062 270.320312 67.832031 C 301.34375 67.65625 332.386719 67.492188 363.441406 67.289062 C 377.773438 67.199219 392.546875 68.070312 406.824219 66.785156 C 408.460938 66.636719 409.59375 67.289062 410.289062 68.277344 C 416.703125 72.273438 423.25 76.003906 429.78125 79.765625 C 431.566406 80.785156 432.082031 82.4375 431.847656 83.957031 C 431.90625 84.308594 431.964844 84.621094 431.933594 85.003906 C 431.90625 98.765625 431.359375 112.515625 431.242188 126.277344 C 435.988281 127.945312 440.441406 130.335938 445.132812 132.164062 C 445.191406 132.195312 445.21875 132.222656 445.28125 132.222656 C 447.566406 132.105469 449.777344 133.449219 449.421875 136.398438 C 446.105469 164.46875 447.386719 193.691406 446.503906 221.941406 C 445.722656 247.992188 448.082031 276.859375 443.097656 302.585938 C 443.039062 302.910156 442.921875 303.175781 442.832031 303.441406 C 442.714844 305.273438 441.546875 307.191406 439.660156 307.457031 C 435.324219 308.105469 430.976562 308.710938 426.609375 308.945312 C 426.9375 317.898438 427.71875 326.75 426.109375 335.617188 C 426.464844 337.222656 425.902344 338.875 423.957031 339.820312 C 414.949219 344.128906 402.398438 344.15625 390.675781 343.609375 C 390.574219 345.085938 390.484375 346.546875 390.484375 348.007812 C 411.144531 351.472656 432.199219 350.601562 453.09375 349.867188 C 454.082031 349.835938 454.863281 350.101562 455.511719 350.515625 C 457.3125 350.855469 458.800781 352.195312 458.535156 354.617188 C 456.945312 369.898438 456.945312 385.226562 457.03125 400.550781 C 464.417969 401.40625 478.765625 401.40625 481.214844 410.289062 C 481.730469 412.191406 481.007812 414.050781 481.125 415.921875 C 481.464844 421.308594 486.804688 421.660156 490.417969 422.414062 C 496.121094 423.550781 501.917969 425.394531 507.226562 427.902344 Z M 423.839844 222.265625 C 428.410156 223.652344 433.1875 224.804688 437.773438 226.175781 C 437.832031 223.828125 438.054688 221.5 438.113281 219.167969 C 433.453125 217.707031 427.214844 216.542969 424.3125 215.15625 C 424.3125 215.171875 424.3125 215.242188 424.3125 215.273438 C 424.3125 217.605469 423.925781 219.933594 423.867188 222.234375 C 423.867188 222.265625 423.839844 222.265625 423.839844 222.265625 " fill-opacity="1" fill-rule="nonzero"/></g><path fill="#ffffff" d="M 389.347656 394.695312 C 392.253906 394.695312 392.253906 400.523438 389.347656 400.523438 C 366.035156 400.523438 322.328125 400.523438 322.328125 400.523438 C 319.410156 400.523438 319.410156 394.695312 322.328125 394.695312 C 345.640625 394.695312 366.035156 394.695312 389.347656 394.695312 " fill-opacity="1" fill-rule="nonzero"/><path fill="#ffffff" d="M 379.808594 115.847656 C 379.867188 110.953125 382.09375 103.945312 373.804688 104.210938 C 370.871094 104.238281 367.953125 104.417969 365.046875 104.683594 C 356.96875 105.40625 349.046875 105.613281 340.953125 105.671875 C 300.5625 105.9375 260.203125 106.203125 219.859375 106.453125 C 200.367188 106.570312 180.726562 107.765625 161.230469 107.558594 C 154.183594 107.484375 155.761719 152.890625 155.613281 158.65625 C 154.699219 194.976562 156.304688 232.28125 152.78125 268.421875 C 151.882812 277.820312 152.898438 276.65625 162.867188 277.761719 C 171.140625 278.660156 178.601562 277.996094 186.816406 277.671875 C 204.289062 276.917969 221.925781 279.101562 239.382812 279.886719 C 271.664062 281.34375 304.058594 283.648438 336.394531 284.03125 C 346.363281 284.148438 356.363281 284.207031 366.359375 284.546875 C 368.71875 284.636719 372.730469 284.238281 375.914062 284.722656 C 375.707031 246.28125 377.597656 207.839844 377.890625 169.382812 C 378.039062 151.488281 379.5 133.683594 379.808594 115.847656 Z M 383.6875 102.808594 C 385.058594 116.335938 382.582031 129.597656 382.460938 143.09375 C 382.34375 158.863281 382.226562 174.632812 382.09375 190.433594 C 381.859375 222.871094 380.015625 255.28125 380.308594 287.761719 C 380.308594 288.542969 379.925781 289.105469 379.4375 289.445312 C 378.820312 290.0625 377.949219 290.300781 377.019531 289.652344 C 374.515625 287.835938 366.609375 288.925781 363.734375 288.867188 C 357.054688 288.691406 350.417969 288.574219 343.738281 288.484375 C 327.679688 288.277344 311.695312 287.496094 295.640625 286.757812 C 246.550781 284.574219 197.417969 281.742188 148.445312 281.199219 C 147.074219 281.167969 145.941406 279.796875 146.335938 278.425781 C 150.804688 263.996094 148.933594 247.152344 149.40625 232.164062 C 149.90625 216.496094 150.1875 200.800781 150.570312 185.09375 C 151.234375 158.597656 149.609375 130.878906 154.683594 104.742188 C 154.847656 103.8125 155.863281 103.132812 156.777344 103.132812 C 196.902344 103.574219 237.246094 101.96875 277.429688 101.703125 C 298.589844 101.554688 319.761719 101.40625 340.953125 101.304688 C 354.429688 101.214844 368.75 98.441406 382.09375 100.714844 C 383.109375 100.890625 383.597656 101.910156 383.6875 102.808594 " fill-opacity="1" fill-rule="nonzero"/><path fill="#ffffff" d="M 369.351562 144.703125 C 369.382812 140.617188 373.171875 112.78125 368.304688 113.195312 C 362.070312 113.738281 355.859375 114.300781 349.625 114.359375 C 338.152344 114.417969 326.695312 114.507812 315.222656 114.566406 C 273.300781 114.859375 231.332031 115.109375 189.410156 115.375 C 186.136719 115.40625 182.878906 115.347656 179.617188 115.464844 C 167.675781 115.820312 165.566406 115.523438 165.167969 128.167969 C 165.078125 131.058594 164.992188 133.976562 164.902344 136.855469 C 164.402344 156.296875 164.003906 175.769531 163.589844 195.210938 C 163.265625 212.351562 162.574219 229.523438 162.128906 246.664062 C 162.042969 250.398438 159.34375 268.585938 163.828125 269.070312 C 171.023438 269.855469 177.4375 269.542969 184.601562 269.070312 C 204.9375 267.699219 226.007812 270.53125 246.460938 271.460938 C 286.6875 273.246094 326.898438 274.5 367.171875 275.828125 C 367.40625 232.132812 369 188.425781 369.351562 144.703125 Z M 373.320312 108.589844 C 374.515625 108.53125 375.53125 109.636719 375.503906 110.773438 C 374.851562 166.503906 371.773438 222.324219 371.507812 278.113281 C 371.507812 278.570312 371.328125 278.957031 371.136719 279.28125 C 370.785156 279.855469 370.222656 280.328125 369.324219 280.296875 C 336.394531 279.191406 303.542969 278.367188 270.617188 276.917969 C 255.515625 276.210938 240.402344 275.546875 225.273438 274.871094 C 216.21875 274.472656 207.148438 273.304688 198.066406 273.160156 C 184.808594 272.921875 172.453125 274.382812 159.195312 272.921875 C 158.089844 272.804688 156.925781 272.023438 157.011719 270.738281 C 160.507812 218.800781 156.070312 165.828125 161.9375 114.035156 C 162.070312 112.808594 162.839844 111.910156 164.121094 111.851562 C 233.75 108.324219 303.675781 111.878906 373.320312 108.589844 " fill-opacity="1" fill-rule="nonzero"/><path fill="#ffffff" d="M 301.933594 399.386719 C 301.933594 398.101562 301.933594 396.820312 301.933594 395.550781 C 286.40625 393.351562 271.691406 394.664062 256.074219 393.882812 C 244.160156 393.265625 232.289062 391.921875 220.347656 391.640625 C 220.347656 392.628906 220.347656 393.589844 220.347656 394.578125 C 247.539062 396.6875 274.109375 399.210938 301.933594 399.386719 Z M 302.082031 391.289062 C 304.058594 391.347656 306.035156 391.40625 307.996094 391.375 C 306.683594 394.664062 307.464844 399.535156 307.347656 403.382812 C 278.046875 404.429688 248.644531 401.140625 219.449219 398.898438 C 218.519531 398.8125 217.957031 398.28125 217.679688 397.617188 L 217.441406 397.617188 C 217.441406 397.320312 217.441406 396.9375 217.441406 396.597656 C 217.441406 396.570312 217.441406 396.539062 217.441406 396.511719 C 217.441406 394.386719 217.441406 391.613281 217.441406 390.035156 C 217.292969 389.53125 217.292969 389.015625 217.472656 388.542969 C 217.648438 386.65625 219.121094 386.183594 219.917969 387.230469 C 235.59375 387.585938 251.210938 390.0625 266.914062 389.503906 C 278.742188 389.105469 290.390625 390.832031 302.082031 391.289062 " fill-opacity="1" fill-rule="nonzero"/><g clip-path="url(#8c3d6c247f)"><g clip-path="url(#7a790cbef3)"><g clip-path="url(#26ff4f9b8b)"><g clip-path="url(#faf78f6163)"><path fill="#366a96" d="M 189.9375 119.660156 L 185.15625 225.25 L 297.46875 230.332031 L 302.25 124.742188 Z M 189.9375 119.660156 " fill-opacity="1" fill-rule="nonzero"/></g></g></g></g><g clip-path="url(#d4633bbed2)"><g clip-path="url(#c84b3609fe)"><g clip-path="url(#553486ec1f)"><g clip-path="url(#48c56eb813)"><path fill="#ffc836" d="M 224.652344 157.210938 L 219.808594 264.191406 L 332.316406 269.285156 L 337.15625 162.304688 Z M 224.652344 157.210938 " fill-opacity="1" fill-rule="nonzero"/></g></g></g></g><g clip-path="url(#29b956423e)"><g clip-path="url(#6446232bb2)"><g clip-path="url(#08852ec61e)"><path fill="#ffffff" d="M 237.957031 140.417969 C 238.113281 136.949219 241.082031 134.273438 244.605469 134.433594 C 248.117188 134.59375 250.84375 137.527344 250.6875 140.996094 C 250.53125 144.449219 247.550781 147.125 244.039062 146.964844 C 240.515625 146.808594 237.800781 143.875 237.957031 140.417969 Z M 271.433594 246.550781 C 271.589844 243.09375 274.574219 240.421875 278.082031 240.578125 C 281.605469 240.738281 284.324219 243.671875 284.164062 247.128906 C 284.007812 250.59375 281.039062 253.269531 277.515625 253.113281 C 274.007812 252.953125 271.277344 250.019531 271.433594 246.550781 Z M 271.433594 246.550781 " fill-opacity="1" fill-rule="nonzero"/></g></g></g><g fill="#ffffff" fill-opacity="1"><g transform="translate(593.135098, 170.010685)"><g><path d="M -0.28125 0.09375 C 6.394531 -29.601562 10.972656 -52.625 13.453125 -68.96875 C 20.441406 -71.070312 25.6875 -72.125 29.1875 -72.125 C 32.6875 -72.125 35.4375 -71.628906 37.4375 -70.640625 C 39.445312 -69.648438 41.085938 -68.332031 42.359375 -66.6875 C 44.585938 -63.695312 45.703125 -59.367188 45.703125 -53.703125 C 45.703125 -50.078125 45.03125 -46.5625 43.6875 -43.15625 C 42.351562 -39.757812 40.570312 -36.738281 38.34375 -34.09375 C 36.125 -31.457031 33.550781 -29.359375 30.625 -27.796875 C 27.695312 -26.242188 24.675781 -25.46875 21.5625 -25.46875 L 20.515625 -25.46875 C 19.304688 -20.125 18 -12.71875 16.59375 -3.25 Z M 27 -60.296875 C 25.34375 -51.066406 23.847656 -42.894531 22.515625 -35.78125 C 24.804688 -36.351562 26.9375 -38.195312 28.90625 -41.3125 C 31.070312 -44.738281 32.15625 -48.617188 32.15625 -52.953125 C 32.15625 -55.367188 31.613281 -57.195312 30.53125 -58.4375 C 29.445312 -59.675781 28.269531 -60.296875 27 -60.296875 Z M 27 -60.296875 "/></g></g><g transform="translate(630.151996, 170.010685)"><g><path d="M 25.5625 -41.78125 C 27.664062 -47 31.101562 -56.664062 35.875 -70.78125 L 51.03125 -67.453125 C 47.539062 -60.328125 44.394531 -53.867188 41.59375 -48.078125 L 35.484375 -35.484375 C 34.273438 -32.941406 33.082031 -30.460938 31.90625 -28.046875 C 30.726562 -25.628906 29.664062 -23.375 28.71875 -21.28125 C 27.757812 -16.445312 26.265625 -10.53125 24.234375 -3.53125 L 7.53125 -1.4375 L 12.015625 -21.078125 C 12.015625 -28.960938 11.695312 -37.675781 11.0625 -47.21875 C 10.425781 -56.757812 10.046875 -62.257812 9.921875 -63.71875 L 9.734375 -65.828125 L 25.65625 -71.9375 L 25.65625 -54.953125 L 25.5625 -45.40625 Z M 25.5625 -41.78125 "/></g></g><g transform="translate(667.645916, 170.010685)"><g><path d="M 10.015625 -57.421875 L 10.5 -69.921875 C 13.800781 -69.671875 17.140625 -69.546875 20.515625 -69.546875 C 29.410156 -69.546875 38.085938 -70.085938 46.546875 -71.171875 L 45.5 -65.921875 C 45.1875 -64.453125 44.882812 -62.9375 44.59375 -61.375 C 44.3125 -59.820312 44.039062 -58.472656 43.78125 -57.328125 C 42.320312 -56.953125 40.859375 -56.679688 39.390625 -56.515625 C 37.929688 -56.359375 36.503906 -56.15625 35.109375 -55.90625 C 33.960938 -51.007812 32.816406 -44.9375 31.671875 -37.6875 C 29.128906 -21.65625 27.347656 -9.984375 26.328125 -2.671875 L 8.78125 0.09375 C 13.925781 -24.070312 17.390625 -42.992188 19.171875 -56.671875 C 17.648438 -56.859375 16.125 -56.921875 14.59375 -56.859375 C 13.070312 -56.796875 11.546875 -56.984375 10.015625 -57.421875 Z M 10.015625 -57.421875 "/></g></g><g transform="translate(703.040939, 170.010685)"><g><path d="M 0.859375 0.1875 C 6.515625 -29.382812 10.648438 -52.914062 13.265625 -70.40625 L 29.09375 -71.546875 C 26.550781 -60.859375 24.484375 -51.253906 22.890625 -42.734375 L 32.53125 -43.890625 C 33.414062 -48.460938 34.222656 -52.925781 34.953125 -57.28125 C 35.691406 -61.644531 36.632812 -66.113281 37.78125 -70.6875 C 40.320312 -71.132812 43.019531 -71.46875 45.875 -71.6875 C 48.738281 -71.914062 50.710938 -72.0625 51.796875 -72.125 L 53.421875 -72.3125 C 50.304688 -62.132812 47.253906 -47.859375 44.265625 -29.484375 C 42.804688 -21.210938 41.472656 -12.753906 40.265625 -4.109375 L 25 -2.390625 C 25.820312 -6.265625 26.566406 -9.914062 27.234375 -13.34375 C 27.898438 -16.78125 28.566406 -20.1875 29.234375 -23.5625 C 29.898438 -26.9375 30.457031 -29.832031 30.90625 -32.25 L 21.375 -31.390625 C 19.90625 -23.304688 18.09375 -13.828125 15.9375 -2.953125 Z M 0.859375 0.1875 "/></g></g><g transform="translate(746.259121, 170.010685)"><g><path d="M 41.109375 -44.640625 C 41.109375 -49.921875 39.582031 -52.5625 36.53125 -52.5625 C 32.65625 -52.5625 29.160156 -50.65625 26.046875 -46.84375 C 23.566406 -43.789062 21.4375 -39.625 19.65625 -34.34375 C 18.25 -30.019531 17.546875 -25.945312 17.546875 -22.125 C 17.546875 -19.582031 18.628906 -17.675781 20.796875 -16.40625 C 21.429688 -15.957031 22.160156 -15.734375 22.984375 -15.734375 C 25.910156 -15.734375 28.503906 -16.734375 30.765625 -18.734375 C 33.023438 -20.742188 34.914062 -23.210938 36.4375 -26.140625 C 37.96875 -29.066406 39.128906 -32.195312 39.921875 -35.53125 C 40.710938 -38.875 41.109375 -41.910156 41.109375 -44.640625 Z M 54.65625 -50.65625 C 54.65625 -46.78125 54.097656 -42.488281 52.984375 -37.78125 C 51.878906 -33.070312 50.367188 -28.742188 48.453125 -24.796875 C 46.546875 -20.859375 44.335938 -17.332031 41.828125 -14.21875 C 39.316406 -11.101562 36.695312 -8.460938 33.96875 -6.296875 C 28.300781 -1.847656 22.863281 0.375 17.65625 0.375 C 13.257812 0.375 9.789062 -1.210938 7.25 -4.390625 C 4.445312 -7.890625 3.046875 -12.976562 3.046875 -19.65625 C 3.046875 -26.90625 4.734375 -34.726562 8.109375 -43.125 C 11.484375 -51.519531 15.90625 -58.515625 21.375 -64.109375 C 27.28125 -70.085938 33.476562 -73.078125 39.96875 -73.078125 C 45.3125 -73.078125 49.222656 -70.914062 51.703125 -66.59375 C 53.671875 -63.09375 54.65625 -57.78125 54.65625 -50.65625 Z M 54.65625 -50.65625 "/></g></g><g transform="translate(794.438331, 170.010685)"><g><path d="M 41.5 -5.34375 C 40.738281 -5.34375 38.113281 -4.800781 33.625 -3.71875 C 29.144531 -2.632812 26.457031 -1.9375 25.5625 -1.625 C 24.863281 -10.144531 24.273438 -16.359375 23.796875 -20.265625 C 23.328125 -24.179688 22.960938 -27.125 22.703125 -29.09375 C 22.453125 -31.832031 22.007812 -35.140625 21.375 -39.015625 C 21.175781 -37.804688 20.914062 -36.359375 20.59375 -34.671875 C 20.28125 -32.992188 19.96875 -31.164062 19.65625 -29.1875 C 18.632812 -23.082031 17.039062 -14.304688 14.875 -2.859375 L 0.578125 0.484375 C 7.628906 -34.691406 11.828125 -58.445312 13.171875 -70.78125 C 15.203125 -70.90625 17.109375 -71.046875 18.890625 -71.203125 C 20.671875 -71.367188 22.453125 -71.5 24.234375 -71.59375 C 26.015625 -71.6875 27.570312 -71.800781 28.90625 -71.9375 C 29.726562 -66.90625 30.394531 -62.75 30.90625 -59.46875 C 31.414062 -56.195312 31.84375 -53.507812 32.1875 -51.40625 C 32.539062 -49.3125 32.878906 -47.28125 33.203125 -45.3125 C 33.835938 -41.4375 34.503906 -38.003906 35.203125 -35.015625 C 35.453125 -36.347656 35.734375 -37.90625 36.046875 -39.6875 C 36.367188 -41.46875 36.722656 -43.359375 37.109375 -45.359375 C 37.492188 -47.359375 37.90625 -49.390625 38.34375 -51.453125 C 38.789062 -53.523438 39.347656 -56.195312 40.015625 -59.46875 C 40.679688 -62.75 41.523438 -66.867188 42.546875 -71.828125 L 54.46875 -73.265625 C 47.476562 -41.523438 43.15625 -18.882812 41.5 -5.34375 Z M 41.5 -5.34375 "/></g></g></g><g fill="#ffc836" fill-opacity="1"><g transform="translate(504.814355, 291.80136)"><g><path d="M 8.296875 -56.0625 L 11.0625 -75.84375 C 16.957031 -77.101562 22.484375 -78.117188 27.640625 -78.890625 C 32.796875 -79.660156 38.65625 -80.5625 45.21875 -81.59375 C 41.019531 -64.414062 37.148438 -45.398438 33.609375 -24.546875 C 32.578125 -18.128906 31.507812 -11.566406 30.40625 -4.859375 C 25.539062 -3.390625 18.832031 -1.914062 10.28125 -0.4375 C 11.832031 -7.21875 13.101562 -13.019531 14.09375 -17.84375 C 15.09375 -22.675781 15.921875 -26.695312 16.578125 -29.90625 C 17.242188 -33.113281 17.910156 -36.335938 18.578125 -39.578125 C 19.390625 -43.785156 20.53125 -49.941406 22 -58.046875 C 20.007812 -57.898438 17.484375 -57.566406 14.421875 -57.046875 C 11.367188 -56.535156 9.328125 -56.207031 8.296875 -56.0625 Z M 8.296875 -56.0625 "/></g></g></g><g fill="#ffc836" fill-opacity="1"><g transform="translate(541.075145, 291.80136)"><g><path d="M 27.421875 -19.125 C 30.222656 -19.125 32.785156 -20.0625 35.109375 -21.9375 C 37.429688 -23.820312 39.4375 -26.164062 41.125 -28.96875 C 44.59375 -35.007812 46.328125 -41.3125 46.328125 -47.875 C 46.328125 -51.113281 45.695312 -53.875 44.4375 -56.15625 C 43.1875 -58.445312 41.328125 -59.59375 38.859375 -59.59375 C 36.390625 -59.59375 34.140625 -58.539062 32.109375 -56.4375 C 30.085938 -54.34375 28.300781 -51.75 26.75 -48.65625 C 23.289062 -41.570312 21.5625 -34.878906 21.5625 -28.578125 C 21.5625 -22.273438 23.515625 -19.125 27.421875 -19.125 Z M 34.5 -2.546875 C 31.25 -0.921875 27.816406 -0.109375 24.203125 -0.109375 C 20.597656 -0.109375 17.5625 -0.753906 15.09375 -2.046875 C 12.625 -3.335938 10.613281 -5.085938 9.0625 -7.296875 C 6.039062 -11.648438 4.53125 -17.472656 4.53125 -24.765625 C 4.53125 -33.097656 6.300781 -41.796875 9.84375 -50.859375 C 13.457031 -60.078125 18.132812 -67.632812 23.875 -73.53125 C 30.070312 -80.007812 36.453125 -83.25 43.015625 -83.25 C 48.390625 -83.25 52.550781 -80.5625 55.5 -75.1875 C 58.15625 -70.25 59.484375 -63.757812 59.484375 -55.71875 C 59.484375 -42.601562 56.390625 -30.296875 50.203125 -18.796875 C 46.066406 -11.203125 40.832031 -5.785156 34.5 -2.546875 Z M 34.5 -2.546875 "/></g></g></g><g fill="#ffc836" fill-opacity="1"><g transform="translate(594.692473, 291.80136)"><g/></g></g><g fill="#ffc836" fill-opacity="1"><g transform="translate(616.802712, 291.80136)"><g><path d="M 40.140625 -39.578125 C 48.609375 -62.359375 54.207031 -76.625 56.9375 -82.375 C 60.695312 -82.8125 63.773438 -83.210938 66.171875 -83.578125 C 68.566406 -83.953125 70.613281 -84.269531 72.3125 -84.53125 C 74.007812 -84.789062 75.851562 -85.101562 77.84375 -85.46875 C 74.226562 -64.09375 71.203125 -37.148438 68.765625 -4.640625 L 48.984375 -1.109375 C 48.984375 -3.765625 49.3125 -8.039062 49.96875 -13.9375 L 51.515625 -27.203125 C 52.253906 -33.910156 52.957031 -39.101562 53.625 -42.78125 L 52.625 -42.78125 C 51.59375 -39.613281 50.429688 -36.28125 49.140625 -32.78125 C 47.859375 -29.28125 46.550781 -25.722656 45.21875 -22.109375 C 43.894531 -18.503906 42.585938 -14.945312 41.296875 -11.4375 C 40.003906 -7.9375 38.878906 -4.601562 37.921875 -1.4375 C 35.265625 -1.363281 33.015625 -1.253906 31.171875 -1.109375 L 24.546875 -0.78125 L 28.1875 -42.78125 L 26.53125 -42.78125 C 26.382812 -41.820312 26 -40.179688 25.375 -37.859375 C 24.75 -35.546875 24.046875 -32.894531 23.265625 -29.90625 C 22.492188 -26.925781 21.644531 -23.832031 20.71875 -20.625 C 19.800781 -17.414062 18.9375 -14.445312 18.125 -11.71875 C 16.800781 -7 15.847656 -3.71875 15.265625 -1.875 L -3.421875 -0.65625 C 8.585938 -36.925781 16.726562 -63.460938 21 -80.265625 C 25.207031 -80.265625 29.148438 -80.484375 32.828125 -80.921875 C 36.515625 -81.367188 40.5 -81.78125 44.78125 -82.15625 C 44.5625 -80.53125 44.320312 -78.6875 44.0625 -76.625 C 43.800781 -74.5625 43.503906 -72.382812 43.171875 -70.09375 C 42.835938 -67.8125 42.488281 -65.472656 42.125 -63.078125 C 41.757812 -60.679688 41.296875 -57.582031 40.734375 -53.78125 C 40.179688 -49.988281 39.46875 -45.253906 38.59375 -39.578125 Z M 40.140625 -39.578125 "/></g></g></g><g fill="#ffc836" fill-opacity="1"><g transform="translate(686.892167, 291.80136)"><g><path d="M 33.28125 -82.046875 C 24.875 -39.285156 19.75 -12.675781 17.90625 -2.21875 C 15.84375 -2.21875 12.269531 -1.882812 7.1875 -1.21875 C 2.101562 -0.550781 -0.507812 -0.179688 -0.65625 -0.109375 C 1.695312 -8.660156 3.867188 -17.984375 5.859375 -28.078125 C 10.429688 -51.148438 13.675781 -68.21875 15.59375 -79.28125 Z M 33.28125 -82.046875 "/></g></g></g><g fill="#ffc836" fill-opacity="1"><g transform="translate(709.555161, 291.80136)"><g><path d="M 48.09375 -6.1875 C 47.207031 -6.1875 44.164062 -5.5625 38.96875 -4.3125 C 33.769531 -3.0625 30.65625 -2.25 29.625 -1.875 C 28.820312 -11.757812 28.140625 -18.96875 27.578125 -23.5 C 27.023438 -28.03125 26.601562 -31.4375 26.3125 -33.71875 C 26.019531 -36.894531 25.503906 -40.726562 24.765625 -45.21875 C 24.546875 -43.820312 24.25 -42.144531 23.875 -40.1875 C 23.507812 -38.238281 23.144531 -36.117188 22.78125 -33.828125 C 21.59375 -26.753906 19.75 -16.582031 17.25 -3.3125 L 0.65625 0.546875 C 8.84375 -40.210938 13.710938 -67.742188 15.265625 -82.046875 C 17.617188 -82.191406 19.828125 -82.351562 21.890625 -82.53125 C 23.953125 -82.71875 26.015625 -82.863281 28.078125 -82.96875 C 30.140625 -83.082031 31.945312 -83.210938 33.5 -83.359375 C 34.457031 -77.535156 35.226562 -72.726562 35.8125 -68.9375 C 36.40625 -65.144531 36.90625 -62.03125 37.3125 -59.59375 C 37.71875 -57.164062 38.109375 -54.804688 38.484375 -52.515625 C 39.210938 -48.023438 39.984375 -44.046875 40.796875 -40.578125 C 41.085938 -42.128906 41.414062 -43.9375 41.78125 -46 C 42.15625 -48.0625 42.5625 -50.253906 43 -52.578125 C 43.445312 -54.898438 43.925781 -57.257812 44.4375 -59.65625 C 44.957031 -62.050781 45.601562 -65.144531 46.375 -68.9375 C 47.15625 -72.726562 48.132812 -77.5 49.3125 -83.25 L 63.125 -84.921875 C 55.019531 -48.128906 50.007812 -21.882812 48.09375 -6.1875 Z M 48.09375 -6.1875 "/></g></g></g><g fill="#ffc836" fill-opacity="1"><g transform="translate(760.850914, 291.80136)"><g><path d="M 15.03125 -80.484375 C 16.65625 -80.640625 18.554688 -80.828125 20.734375 -81.046875 C 22.910156 -81.265625 25.046875 -81.460938 27.140625 -81.640625 C 29.242188 -81.828125 31.4375 -82.035156 33.71875 -82.265625 C 31.800781 -73.191406 30.289062 -66 29.1875 -60.6875 C 28.082031 -55.382812 27.195312 -51.148438 26.53125 -47.984375 C 25.875 -44.816406 25.285156 -41.90625 24.765625 -39.25 C 23.585938 -33.644531 22.8125 -30 22.4375 -28.3125 C 21.332031 -23.21875 20.78125 -19.929688 20.78125 -18.453125 C 20.78125 -16.984375 21.09375 -15.863281 21.71875 -15.09375 C 22.351562 -14.320312 23.203125 -13.9375 24.265625 -13.9375 C 25.335938 -13.9375 26.296875 -14.453125 27.140625 -15.484375 C 27.992188 -16.515625 28.695312 -17.726562 29.25 -19.125 C 29.800781 -20.53125 30.222656 -21.96875 30.515625 -23.4375 C 30.804688 -24.914062 31.117188 -26.410156 31.453125 -27.921875 C 31.785156 -29.429688 32.226562 -31.53125 32.78125 -34.21875 C 33.332031 -36.90625 33.882812 -39.703125 34.4375 -42.609375 C 34.988281 -45.523438 35.5625 -48.492188 36.15625 -51.515625 C 37.707031 -59.253906 39.515625 -69.0625 41.578125 -80.9375 L 58.703125 -82.046875 L 58.15625 -79.171875 C 57.269531 -74.523438 56.289062 -69.160156 55.21875 -63.078125 C 54.15625 -56.992188 53.179688 -51.742188 52.296875 -47.328125 C 50.015625 -35.828125 48.316406 -27.660156 47.203125 -22.828125 C 46.097656 -18.003906 44.566406 -14.078125 42.609375 -11.046875 C 40.660156 -8.023438 38.398438 -5.519531 35.828125 -3.53125 C 30.890625 0.144531 25.175781 1.984375 18.6875 1.984375 C 14.707031 1.984375 11.28125 0.878906 8.40625 -1.328125 C 5.15625 -3.984375 3.53125 -7.484375 3.53125 -11.828125 C 3.53125 -12.117188 3.53125 -12.410156 3.53125 -12.703125 C 3.53125 -13.003906 3.625 -14.003906 3.8125 -15.703125 C 4 -17.398438 4.421875 -20.441406 5.078125 -24.828125 C 5.742188 -29.210938 6.460938 -33.78125 7.234375 -38.53125 C 8.015625 -43.28125 8.847656 -48.050781 9.734375 -52.84375 C 10.617188 -57.632812 11.425781 -61.984375 12.15625 -65.890625 C 13.78125 -74.296875 14.738281 -79.160156 15.03125 -80.484375 Z M 15.03125 -80.484375 "/></g></g></g><g fill="#ffc836" fill-opacity="1"><g transform="translate(808.277375, 291.80136)"><g><path d="M 11.609375 -66.5625 L 12.15625 -81.046875 C 15.988281 -80.753906 19.859375 -80.609375 23.765625 -80.609375 C 34.085938 -80.609375 44.148438 -81.234375 53.953125 -82.484375 L 52.734375 -76.40625 C 52.367188 -74.707031 52.019531 -72.953125 51.6875 -71.140625 C 51.351562 -69.335938 51.039062 -67.773438 50.75 -66.453125 C 49.050781 -66.003906 47.351562 -65.6875 45.65625 -65.5 C 43.96875 -65.320312 42.3125 -65.085938 40.6875 -64.796875 C 39.363281 -59.117188 38.035156 -52.078125 36.703125 -43.671875 C 33.753906 -25.097656 31.691406 -11.570312 30.515625 -3.09375 L 10.171875 0.109375 C 16.140625 -27.898438 20.15625 -49.828125 22.21875 -65.671875 C 20.445312 -65.890625 18.675781 -65.960938 16.90625 -65.890625 C 15.144531 -65.816406 13.378906 -66.039062 11.609375 -66.5625 Z M 11.609375 -66.5625 "/></g></g></g><g fill="#ffc836" fill-opacity="1"><g transform="translate(849.291867, 291.80136)"><g><path d="M 0.890625 0.109375 L 15.703125 -80.375 L 51.515625 -83.484375 C 51.003906 -81.785156 50.5625 -80.140625 50.1875 -78.546875 C 49.820312 -76.960938 49.453125 -75.394531 49.078125 -73.84375 C 48.710938 -72.300781 48.421875 -70.941406 48.203125 -69.765625 C 45.992188 -69.546875 42.972656 -69.4375 39.140625 -69.4375 L 31.515625 -69.4375 L 27.53125 -49.09375 C 31.582031 -49.3125 34.972656 -49.457031 37.703125 -49.53125 C 40.429688 -49.601562 42.203125 -49.675781 43.015625 -49.75 C 42.710938 -47.613281 42.429688 -45.53125 42.171875 -43.5 C 41.921875 -41.476562 41.609375 -39.398438 41.234375 -37.265625 C 40.429688 -37.191406 39.179688 -37.132812 37.484375 -37.09375 C 35.785156 -37.0625 34.015625 -37.003906 32.171875 -36.921875 C 30.328125 -36.847656 28.265625 -36.773438 25.984375 -36.703125 L 22.109375 -15.8125 L 38.59375 -18.46875 L 37.484375 -5.53125 Z M 0.890625 0.109375 "/></g></g></g><g fill="#ffc836" fill-opacity="1"><g transform="translate(887.874233, 291.80136)"><g><path d="M 41.34375 -57.828125 C 41.71875 -59.296875 41.90625 -60.84375 41.90625 -62.46875 C 41.90625 -64.09375 41.5 -65.398438 40.6875 -66.390625 C 39.875 -67.390625 39.003906 -67.890625 38.078125 -67.890625 C 37.160156 -67.890625 36.257812 -67.664062 35.375 -67.21875 C 34.488281 -66.78125 33.609375 -66.191406 32.734375 -65.453125 C 30.660156 -63.753906 29.625 -61.925781 29.625 -59.96875 C 29.625 -58.019531 30.140625 -56.4375 31.171875 -55.21875 C 32.210938 -54.007812 33.488281 -52.890625 35 -51.859375 C 36.507812 -50.828125 38.144531 -49.753906 39.90625 -48.640625 C 41.675781 -47.535156 43.335938 -46.140625 44.890625 -44.453125 C 48.429688 -40.316406 50.203125 -34.820312 50.203125 -27.96875 C 50.203125 -19.71875 47.175781 -12.898438 41.125 -7.515625 C 35.375 -2.359375 28.113281 0.21875 19.34375 0.21875 C 12.863281 0.21875 6.929688 -3.171875 1.546875 -9.953125 L 9.953125 -26.421875 C 10.984375 -24.359375 12.972656 -22.476562 15.921875 -20.78125 C 18.867188 -19.007812 21.078125 -18.125 22.546875 -18.125 C 24.023438 -18.125 25.257812 -18.269531 26.25 -18.5625 C 27.25 -18.863281 28.15625 -19.3125 28.96875 -19.90625 C 30.8125 -21.226562 31.734375 -22.828125 31.734375 -24.703125 C 31.734375 -26.585938 31.140625 -28.300781 29.953125 -29.84375 C 28.773438 -31.394531 27.320312 -32.867188 25.59375 -34.265625 C 23.863281 -35.671875 21.984375 -37.09375 19.953125 -38.53125 C 17.929688 -39.96875 16.070312 -41.5 14.375 -43.125 C 10.25 -46.8125 8.1875 -50.679688 8.1875 -54.734375 C 8.1875 -58.785156 9.34375 -62.503906 11.65625 -65.890625 C 13.976562 -69.285156 16.890625 -72.21875 20.390625 -74.6875 C 23.898438 -77.15625 27.734375 -79.109375 31.890625 -80.546875 C 36.054688 -81.984375 39.578125 -82.703125 42.453125 -82.703125 C 45.328125 -82.703125 47.664062 -82.441406 49.46875 -81.921875 C 51.28125 -81.410156 52.847656 -80.640625 54.171875 -79.609375 C 57.046875 -77.242188 58.484375 -73.78125 58.484375 -69.21875 C 58.484375 -68.113281 58.390625 -67.039062 58.203125 -66 C 58.023438 -64.96875 57.863281 -63.828125 57.71875 -62.578125 Z M 41.34375 -57.828125 "/></g></g></g><g fill="#ffffff" fill-opacity="1"><g transform="translate(578.274698, 412.198186)"><g><path d="M 0.765625 0.09375 L 13.546875 -69.359375 L 44.453125 -72.03125 C 44.003906 -70.5625 43.617188 -69.144531 43.296875 -67.78125 C 42.984375 -66.414062 42.664062 -65.0625 42.34375 -63.71875 C 42.03125 -62.382812 41.78125 -61.210938 41.59375 -60.203125 C 39.6875 -60.003906 37.078125 -59.90625 33.765625 -59.90625 L 27.1875 -59.90625 L 23.75 -42.359375 C 27.25 -42.546875 30.175781 -42.671875 32.53125 -42.734375 C 34.882812 -42.796875 36.410156 -42.859375 37.109375 -42.921875 C 36.859375 -41.078125 36.617188 -39.28125 36.390625 -37.53125 C 36.171875 -35.789062 35.898438 -34 35.578125 -32.15625 C 34.878906 -32.082031 33.796875 -32.03125 32.328125 -32 C 30.867188 -31.96875 29.34375 -31.921875 27.75 -31.859375 C 26.164062 -31.796875 24.390625 -31.734375 22.421875 -31.671875 L 19.078125 -13.640625 L 33.296875 -15.9375 L 32.34375 -4.765625 Z M 0.765625 0.09375 "/></g></g><g transform="translate(611.570825, 412.198186)"><g><path d="M 21.5625 -18.5 C 19.394531 -12.90625 16.5625 -6.546875 13.0625 0.578125 L -3.53125 -0.859375 C -0.289062 -6.648438 2.960938 -12.390625 6.234375 -18.078125 C 9.515625 -23.765625 12.523438 -29.695312 15.265625 -35.875 C 14.367188 -42.675781 13.378906 -48.476562 12.296875 -53.28125 C 11.222656 -58.082031 10.398438 -61.914062 9.828125 -64.78125 L 25.46875 -71.265625 C 25.789062 -68.148438 26.171875 -64.742188 26.609375 -61.046875 C 27.054688 -57.359375 27.441406 -53.925781 27.765625 -50.75 C 31.640625 -59.59375 34.628906 -66.082031 36.734375 -70.21875 L 50.9375 -66.390625 C 45.03125 -56.535156 39.625 -46.265625 34.71875 -35.578125 C 35.488281 -30.046875 36.648438 -24.179688 38.203125 -17.984375 C 39.765625 -11.785156 40.894531 -7.285156 41.59375 -4.484375 C 41.46875 -4.421875 41.019531 -4.289062 40.25 -4.09375 C 39.488281 -3.90625 38.519531 -3.648438 37.34375 -3.328125 C 36.164062 -3.015625 34.878906 -2.648438 33.484375 -2.234375 C 32.085938 -1.828125 30.71875 -1.429688 29.375 -1.046875 C 25.945312 -0.0234375 23.785156 0.640625 22.890625 0.953125 C 22.703125 -1.648438 22.523438 -4.097656 22.359375 -6.390625 C 22.203125 -8.679688 22.046875 -10.90625 21.890625 -13.0625 C 21.734375 -15.226562 21.625 -17.039062 21.5625 -18.5 Z M 21.5625 -18.5 "/></g></g><g transform="translate(651.736067, 412.198186)"><g><path d="M 0.765625 0.09375 L 13.546875 -69.359375 L 44.453125 -72.03125 C 44.003906 -70.5625 43.617188 -69.144531 43.296875 -67.78125 C 42.984375 -66.414062 42.664062 -65.0625 42.34375 -63.71875 C 42.03125 -62.382812 41.78125 -61.210938 41.59375 -60.203125 C 39.6875 -60.003906 37.078125 -59.90625 33.765625 -59.90625 L 27.1875 -59.90625 L 23.75 -42.359375 C 27.25 -42.546875 30.175781 -42.671875 32.53125 -42.734375 C 34.882812 -42.796875 36.410156 -42.859375 37.109375 -42.921875 C 36.859375 -41.078125 36.617188 -39.28125 36.390625 -37.53125 C 36.171875 -35.789062 35.898438 -34 35.578125 -32.15625 C 34.878906 -32.082031 33.796875 -32.03125 32.328125 -32 C 30.867188 -31.96875 29.34375 -31.921875 27.75 -31.859375 C 26.164062 -31.796875 24.390625 -31.734375 22.421875 -31.671875 L 19.078125 -13.640625 L 33.296875 -15.9375 L 32.34375 -4.765625 Z M 0.765625 0.09375 "/></g></g><g transform="translate(685.032194, 412.198186)"><g><path d="M 29.765625 -1.53125 C 24.867188 -18.820312 22.320312 -28.644531 22.125 -31 L 20.890625 -30.625 C 18.796875 -18.914062 17.238281 -10.039062 16.21875 -4 L 0.375 0.09375 C 6.988281 -31.894531 11.03125 -54.597656 12.5 -68.015625 C 19.875 -70.304688 28.140625 -71.453125 37.296875 -71.453125 C 44.171875 -71.453125 48.242188 -69.066406 49.515625 -64.296875 C 49.890625 -62.835938 50.078125 -61.023438 50.078125 -58.859375 C 50.078125 -56.691406 49.628906 -54.351562 48.734375 -51.84375 C 47.847656 -49.332031 46.644531 -46.929688 45.125 -44.640625 C 41.945312 -40.003906 38.035156 -36.445312 33.390625 -33.96875 C 35.867188 -28.625 38.078125 -23.582031 40.015625 -18.84375 C 41.953125 -14.101562 43.59375 -10.113281 44.9375 -6.875 Z M 30.71875 -57.90625 L 26.515625 -57.8125 L 23.375 -42.265625 C 25.914062 -42.515625 29.125 -44.132812 33 -47.125 C 37.007812 -50.175781 39.015625 -52.6875 39.015625 -54.65625 C 39.015625 -56.5 37.265625 -57.550781 33.765625 -57.8125 C 32.753906 -57.875 31.738281 -57.90625 30.71875 -57.90625 Z M 30.71875 -57.90625 "/></g></g><g transform="translate(728.441185, 412.198186)"><g><path d="M 22.03125 -16.21875 C 23.625 -16.21875 25.3125 -17.203125 27.09375 -19.171875 C 28.875 -21.210938 30.019531 -23.3125 30.53125 -25.46875 L 41.6875 -20.984375 C 38.820312 -14.304688 35.070312 -9 30.4375 -5.0625 C 26.300781 -1.5625 22.070312 0.1875 17.75 0.1875 C 13.675781 0.1875 10.367188 -1.65625 7.828125 -5.34375 C 5.148438 -9.28125 3.8125 -14.460938 3.8125 -20.890625 C 3.8125 -27.316406 4.65625 -33.519531 6.34375 -39.5 C 8.03125 -45.476562 10.398438 -50.832031 13.453125 -55.5625 C 16.503906 -60.300781 20.144531 -64.132812 24.375 -67.0625 C 28.601562 -69.988281 33.226562 -71.453125 38.25 -71.453125 C 41.5 -71.453125 44.265625 -70.210938 46.546875 -67.734375 C 48.773438 -65.191406 49.890625 -61.851562 49.890625 -57.71875 L 49.890625 -56.46875 C 49.890625 -56.09375 49.859375 -55.679688 49.796875 -55.234375 L 37.015625 -51.796875 C 36.253906 -53.390625 35.347656 -54.1875 34.296875 -54.1875 C 33.242188 -54.1875 32.144531 -53.582031 31 -52.375 C 29.851562 -51.164062 28.722656 -49.609375 27.609375 -47.703125 C 26.503906 -45.796875 25.441406 -43.648438 24.421875 -41.265625 C 23.398438 -38.878906 22.507812 -36.476562 21.75 -34.0625 C 19.96875 -28.71875 19.078125 -24.40625 19.078125 -21.125 C 19.078125 -17.851562 20.0625 -16.21875 22.03125 -16.21875 Z M 22.03125 -16.21875 "/></g></g><g transform="translate(768.892641, 412.198186)"><g><path d="M 28.71875 -70.78125 C 21.46875 -33.894531 17.046875 -10.9375 15.453125 -1.90625 C 13.671875 -1.90625 10.585938 -1.617188 6.203125 -1.046875 C 1.816406 -0.472656 -0.441406 -0.15625 -0.578125 -0.09375 C 1.460938 -7.46875 3.34375 -15.515625 5.0625 -24.234375 C 9 -44.140625 11.796875 -58.863281 13.453125 -68.40625 Z M 28.71875 -70.78125 "/></g></g><g transform="translate(788.450538, 412.198186)"><g><path d="M 35.671875 -49.890625 C 35.992188 -51.160156 36.15625 -52.492188 36.15625 -53.890625 C 36.15625 -55.296875 35.804688 -56.425781 35.109375 -57.28125 C 34.410156 -58.144531 33.660156 -58.578125 32.859375 -58.578125 C 32.066406 -58.578125 31.285156 -58.382812 30.515625 -58 C 29.753906 -57.613281 28.992188 -57.101562 28.234375 -56.46875 C 26.453125 -55.007812 25.5625 -53.4375 25.5625 -51.75 C 25.5625 -50.0625 26.003906 -48.691406 26.890625 -47.640625 C 27.785156 -46.597656 28.882812 -45.628906 30.1875 -44.734375 C 31.5 -43.847656 32.914062 -42.925781 34.4375 -41.96875 C 35.96875 -41.019531 37.398438 -39.8125 38.734375 -38.34375 C 41.785156 -34.78125 43.3125 -30.046875 43.3125 -24.140625 C 43.3125 -17.015625 40.703125 -11.128906 35.484375 -6.484375 C 30.523438 -2.035156 24.257812 0.1875 16.6875 0.1875 C 11.09375 0.1875 5.972656 -2.734375 1.328125 -8.578125 L 8.578125 -22.796875 C 9.472656 -21.015625 11.191406 -19.394531 13.734375 -17.9375 C 16.273438 -16.40625 18.179688 -15.640625 19.453125 -15.640625 C 20.734375 -15.640625 21.800781 -15.765625 22.65625 -16.015625 C 23.507812 -16.273438 24.289062 -16.660156 25 -17.171875 C 26.582031 -18.316406 27.375 -19.695312 27.375 -21.3125 C 27.375 -22.9375 26.863281 -24.414062 25.84375 -25.75 C 24.832031 -27.09375 23.578125 -28.367188 22.078125 -29.578125 C 20.585938 -30.785156 18.96875 -32.007812 17.21875 -33.25 C 15.46875 -34.488281 13.863281 -35.804688 12.40625 -37.203125 C 8.84375 -40.378906 7.0625 -43.71875 7.0625 -47.21875 C 7.0625 -50.71875 8.0625 -53.929688 10.0625 -56.859375 C 12.0625 -59.785156 14.570312 -62.3125 17.59375 -64.4375 C 20.613281 -66.570312 23.921875 -68.257812 27.515625 -69.5 C 31.109375 -70.738281 34.144531 -71.359375 36.625 -71.359375 C 39.113281 -71.359375 41.132812 -71.132812 42.6875 -70.6875 C 44.25 -70.238281 45.601562 -69.570312 46.75 -68.6875 C 49.226562 -66.65625 50.46875 -63.664062 50.46875 -59.71875 C 50.46875 -58.757812 50.382812 -57.832031 50.21875 -56.9375 C 50.0625 -56.050781 49.921875 -55.070312 49.796875 -54 Z M 35.671875 -49.890625 "/></g></g><g transform="translate(830.428463, 412.198186)"><g><path d="M 0.765625 0.09375 L 13.546875 -69.359375 L 44.453125 -72.03125 C 44.003906 -70.5625 43.617188 -69.144531 43.296875 -67.78125 C 42.984375 -66.414062 42.664062 -65.0625 42.34375 -63.71875 C 42.03125 -62.382812 41.78125 -61.210938 41.59375 -60.203125 C 39.6875 -60.003906 37.078125 -59.90625 33.765625 -59.90625 L 27.1875 -59.90625 L 23.75 -42.359375 C 27.25 -42.546875 30.175781 -42.671875 32.53125 -42.734375 C 34.882812 -42.796875 36.410156 -42.859375 37.109375 -42.921875 C 36.859375 -41.078125 36.617188 -39.28125 36.390625 -37.53125 C 36.171875 -35.789062 35.898438 -34 35.578125 -32.15625 C 34.878906 -32.082031 33.796875 -32.03125 32.328125 -32 C 30.867188 -31.96875 29.34375 -31.921875 27.75 -31.859375 C 26.164062 -31.796875 24.390625 -31.734375 22.421875 -31.671875 L 19.078125 -13.640625 L 33.296875 -15.9375 L 32.34375 -4.765625 Z M 0.765625 0.09375 "/></g></g></g><g clip-path="url(#faeba4766a)"><g clip-path="url(#c88f9b152e)"><g clip-path="url(#4709785ba1)"><path fill="#0050ad" d="M -182.410156 267.59375 L -64.128906 157.339844 L 375.167969 628.625 L 256.886719 738.878906 Z M -182.410156 267.59375 " fill-opacity="1" fill-rule="nonzero"/></g></g></g></svg>